<?xml version="1.0" encoding="utf-8"?>
<!-- Generator: Adobe Illustrator 16.0.0, SVG Export Plug-In . SVG Version: 6.00 Build 0)  -->
<!DOCTYPE svg PUBLIC "-//W3C//DTD SVG 1.1//EN" "http://www.w3.org/Graphics/SVG/1.1/DTD/svg11.dtd">
<svg version="1.1" id="Ebene_1" xmlns="http://www.w3.org/2000/svg" xmlns:xlink="http://www.w3.org/1999/xlink" x="0px" y="0px"
	 width="419.527px" height="192.319px" viewBox="0 0 419.527 192.319" enable-background="new 0 0 419.527 192.319"
	 xml:space="preserve">
<g id="Layer_x0020_1">
	<g id="_321426880">
		<g>
			<path fill="#373435" d="M332.879,29.994c-15.479,0-29.735,5.328-41.038,14.255c-11.304-8.927-25.487-14.255-41.039-14.255
				c-15.479,0-29.734,5.328-41.038,14.255c-11.303-8.927-25.487-14.255-41.038-14.255c-15.479,0-29.735,5.328-41.039,14.255
				c-11.304-8.927-25.487-14.255-41.038-14.255c-36.575,0-66.166,29.591-66.166,66.165c0,36.575,29.591,66.166,66.166,66.166
				c15.479,0,29.734-5.328,41.038-14.256c11.304,8.928,25.559,14.256,41.039,14.256s29.735-5.328,41.038-14.256
				c11.304,8.928,25.56,14.256,41.038,14.256c15.48,0,29.735-5.328,41.039-14.256c11.303,8.928,25.486,14.256,41.038,14.256
				c36.574,0,66.165-29.591,66.165-66.166C399.044,59.584,369.453,29.994,332.879,29.994z M116.959,137.269
				c-8.424,6.12-18.935,9.936-30.167,9.936c-28.223,0-50.974-22.823-50.974-50.974c0-28.223,22.823-50.974,50.974-50.974
				c11.232,0,21.743,3.743,30.167,9.936c-9,11.303-14.328,25.559-14.328,41.11c0,15.479,5.4,29.807,14.328,41.11V137.269z
				 M127.759,126.469c-6.264-8.495-10.008-18.935-10.008-30.311c0-11.375,3.672-21.814,10.008-30.311
				c6.264,8.496,10.007,18.936,10.007,30.311C137.767,107.535,134.095,117.974,127.759,126.469z M198.964,137.269
				c-8.496,6.264-18.936,9.864-30.239,9.864c-11.304,0-21.671-3.672-30.167-9.864c8.928-11.304,14.328-25.631,14.328-41.11
				c0-15.551-5.328-29.807-14.328-41.11c8.496-6.191,18.863-9.863,30.167-9.863c11.303,0,21.743,3.672,30.239,9.863
				c-9,11.304-14.328,25.56-14.328,41.11C184.637,111.638,190.037,125.965,198.964,137.269z M209.764,126.469
				c-6.264-8.495-10.007-18.935-10.007-30.311c0-11.375,3.672-21.814,10.007-30.311c6.265,8.496,10.008,18.936,10.008,30.311
				C219.771,107.535,216.1,117.974,209.764,126.469z M280.97,137.269c-8.496,6.264-18.936,9.864-30.239,9.864
				s-21.671-3.672-30.167-9.864c8.928-11.304,14.327-25.631,14.327-41.11c0-15.551-5.327-29.807-14.327-41.11
				c8.496-6.191,18.863-9.863,30.167-9.863s21.743,3.672,30.239,9.863c-9,11.304-14.328,25.56-14.328,41.11
				C266.642,111.638,272.042,125.965,280.97,137.269z M291.769,126.469c-6.264-8.495-10.008-18.935-10.008-30.311
				c0-11.375,3.672-21.814,10.008-30.311c6.264,8.496,10.008,18.936,10.008,30.311C301.776,107.535,298.104,117.974,291.769,126.469
				z M332.807,147.133c-11.231,0-21.743-3.744-30.167-9.936c8.928-11.304,14.328-25.632,14.328-41.11
				c0-15.552-5.328-29.808-14.328-41.111c8.424-6.119,18.936-9.936,30.167-9.936c28.224,0,50.975,22.823,50.975,50.975
				c0,28.223-22.823,50.974-50.975,50.974V147.133z"/>
		</g>
	</g>
</g>
</svg>
