<?xml version="1.0" encoding="utf-8"?>
<!-- Generator: Adobe Illustrator 16.0.0, SVG Export Plug-In . SVG Version: 6.00 Build 0)  -->
<!DOCTYPE svg PUBLIC "-//W3C//DTD SVG 1.1//EN" "http://www.w3.org/Graphics/SVG/1.1/DTD/svg11.dtd">
<svg version="1.1" id="Layer_1" xmlns="http://www.w3.org/2000/svg" xmlns:xlink="http://www.w3.org/1999/xlink" x="0px" y="0px"
	 width="938.953px" height="498.5px" viewBox="0 0 938.953 498.5" enable-background="new 0 0 938.953 498.5" xml:space="preserve">
<g>
	<path fill="#FFFEF6" d="M330.652,104.62c-3-2.51-7.66-2.62-9.72-0.16l-17.8,21.21l11.01,9.24l17.6-20.97
		C333.952,111.3,333.942,107.38,330.652,104.62z M350.752,118.67c-3.17-2.66-7.88-1.93-10,0.59l-18.7,22.29l11.64,9.76l18.55-22.11
		C354.702,126.27,354.352,121.69,350.752,118.67z M472.772,74.39l-0.09,0.22h0.17L472.772,74.39z M350.752,118.67
		c-3.17-2.66-7.88-1.93-10,0.59l-18.7,22.29l11.64,9.76l18.55-22.11C354.702,126.27,354.352,121.69,350.752,118.67z M330.652,104.62
		c-3-2.51-7.66-2.62-9.72-0.16l-17.8,21.21l11.01,9.24l17.6-20.97C333.952,111.3,333.942,107.38,330.652,104.62z M472.772,74.39
		l-0.09,0.22h0.17L472.772,74.39z M471.692,18.54c-127.42,0-230.71,103.29-230.71,230.71s103.29,230.71,230.71,230.71
		s230.71-103.29,230.71-230.71S599.112,18.54,471.692,18.54z M437.972,31.14h18.27l16.53,43.25l16.53-43.25h18.26v60.72h-12.15
		v-42.4l-16,42.4h-13.28l-16-42.4v42.4h-12.16V31.14z M284.822,131.04l29.63-35.32c6.14-7.31,14.71-13.14,22.86-6.31
		c2.52,2.12,3.58,2.81,6.64,8.38c0.72,1.98,1.27,5.56-0.09,9.07c7.09-4.4,14.65-2.97,19.53,1.78c7.51,7.3,6.4,15.73-0.74,24.24
		l-31.25,37.24L284.822,131.04z M471.692,396.62c-81.39,0-147.37-65.98-147.37-147.37s65.98-147.37,147.37-147.37
		s147.37,65.98,147.37,147.37S553.082,396.62,471.692,396.62z M609.012,171.36l-11.03-13.72l21.97-32.13l-0.13-0.16l-35.99,14.81
		l-11.14-13.64l38.1-49l9.4,11.6l-23.86,31.21l36.46-15.65l10.08,12.45l-22.89,32.4l35.48-16.84l9.4,11.6L609.012,171.36z
		 M471.692,387.14c76.15,0,137.89-61.74,137.89-137.89h-137.89V387.14z M472.852,74.61l-0.08-0.22l-0.09,0.22H472.852z
		 M333.802,249.25h137.89V111.36C395.542,111.36,333.802,173.1,333.802,249.25z M352.242,129.2c2.46-2.93,2.11-7.51-1.49-10.53
		c-3.17-2.66-7.88-1.93-10,0.59l-18.7,22.29l11.64,9.76L352.242,129.2z M330.652,104.62c-3-2.51-7.66-2.62-9.72-0.16l-17.8,21.21
		l11.01,9.24l17.6-20.97C333.952,111.3,333.942,107.38,330.652,104.62z M472.772,74.39l-0.09,0.22h0.17L472.772,74.39z
		 M472.772,74.39l-0.09,0.22h0.17L472.772,74.39z"/>
	<path fill="#FFFEF6" d="M647.942,73c-47.08-47.07-109.67-73-176.25-73c-137.44,0-249.25,111.81-249.25,249.25
		c0,66.58,25.93,129.17,73,176.25c47.08,47.07,109.67,73,176.25,73s129.17-25.93,176.25-73c47.07-47.08,73-109.67,73-176.25
		S695.012,120.08,647.942,73z M471.692,489.88c-64.27,0-124.7-25.03-170.15-70.48c-45.45-45.45-70.48-105.88-70.48-170.15
		s25.03-124.7,70.48-170.15c45.45-45.45,105.88-70.48,170.15-70.48s124.7,25.03,170.15,70.48c45.45,45.45,70.48,105.88,70.48,170.15
		C712.322,381.93,604.372,489.88,471.692,489.88z"/>
	<path fill="#FFFEF6" d="M330.652,104.62c-3-2.51-7.66-2.62-9.72-0.16l-17.8,21.21l11.01,9.24l17.6-20.97
		C333.952,111.3,333.942,107.38,330.652,104.62z M350.752,118.67c-3.17-2.66-7.88-1.93-10,0.59l-18.7,22.29l11.64,9.76l18.55-22.11
		C354.702,126.27,354.352,121.69,350.752,118.67z M472.772,74.39l-0.09,0.22h0.17L472.772,74.39z M350.752,118.67
		c-3.17-2.66-7.88-1.93-10,0.59l-18.7,22.29l11.64,9.76l18.55-22.11C354.702,126.27,354.352,121.69,350.752,118.67z M330.652,104.62
		c-3-2.51-7.66-2.62-9.72-0.16l-17.8,21.21l11.01,9.24l17.6-20.97C333.952,111.3,333.942,107.38,330.652,104.62z M472.772,74.39
		l-0.09,0.22h0.17L472.772,74.39z M471.692,18.54c-127.42,0-230.71,103.29-230.71,230.71s103.29,230.71,230.71,230.71
		s230.71-103.29,230.71-230.71S599.112,18.54,471.692,18.54z M437.972,31.14h18.27l16.53,43.25l16.53-43.25h18.26v60.72h-12.15
		v-42.4l-16,42.4h-13.28l-16-42.4v42.4h-12.16V31.14z M284.822,131.04l29.63-35.32c6.14-7.31,14.71-13.14,22.86-6.31
		c2.52,2.12,3.58,2.81,6.64,8.38c0.72,1.98,1.27,5.56-0.09,9.07c7.09-4.4,14.65-2.97,19.53,1.78c7.51,7.3,6.4,15.73-0.74,24.24
		l-31.25,37.24L284.822,131.04z M471.692,396.62c-81.39,0-147.37-65.98-147.37-147.37s65.98-147.37,147.37-147.37
		s147.37,65.98,147.37,147.37S553.082,396.62,471.692,396.62z M609.012,171.36l-11.03-13.72l21.97-32.13l-0.13-0.16l-35.99,14.81
		l-11.14-13.64l38.1-49l9.4,11.6l-23.86,31.21l36.46-15.65l10.08,12.45l-22.89,32.4l35.48-16.84l9.4,11.6L609.012,171.36z
		 M471.692,387.14c76.15,0,137.89-61.74,137.89-137.89h-137.89V387.14z M472.852,74.61l-0.08-0.22l-0.09,0.22H472.852z
		 M333.802,249.25h137.89V111.36C395.542,111.36,333.802,173.1,333.802,249.25z M352.242,129.2c2.46-2.93,2.11-7.51-1.49-10.53
		c-3.17-2.66-7.88-1.93-10,0.59l-18.7,22.29l11.64,9.76L352.242,129.2z M330.652,104.62c-3-2.51-7.66-2.62-9.72-0.16l-17.8,21.21
		l11.01,9.24l17.6-20.97C333.952,111.3,333.942,107.38,330.652,104.62z M472.772,74.39l-0.09,0.22h0.17L472.772,74.39z
		 M472.772,74.39l-0.09,0.22h0.17L472.772,74.39z"/>
</g>
<path fill="#FFFEF6" d="M330.652,104.62c-3-2.51-7.66-2.62-9.72-0.16l-17.8,21.21l11.01,9.24l17.6-20.97
	C333.952,111.3,333.942,107.38,330.652,104.62z M350.752,118.67c-3.17-2.66-7.88-1.93-10,0.59l-18.7,22.29l11.64,9.76l18.55-22.11
	C354.702,126.27,354.352,121.69,350.752,118.67z M472.772,74.39l-0.09,0.22h0.17L472.772,74.39z M350.752,118.67
	c-3.17-2.66-7.88-1.93-10,0.59l-18.7,22.29l11.64,9.76l18.55-22.11C354.702,126.27,354.352,121.69,350.752,118.67z M330.652,104.62
	c-3-2.51-7.66-2.62-9.72-0.16l-17.8,21.21l11.01,9.24l17.6-20.97C333.952,111.3,333.942,107.38,330.652,104.62z M472.772,74.39
	l-0.09,0.22h0.17L472.772,74.39z M471.692,18.54c-127.42,0-230.71,103.29-230.71,230.71s103.29,230.71,230.71,230.71
	s230.71-103.29,230.71-230.71S599.112,18.54,471.692,18.54z M437.972,31.14h18.27l16.53,43.25l16.53-43.25h18.26v60.72h-12.15v-42.4
	l-16,42.4h-13.28l-16-42.4v42.4h-12.16V31.14z M284.822,131.04l29.63-35.32c6.14-7.31,14.71-13.14,22.86-6.31
	c2.52,2.12,3.58,2.81,6.64,8.38c0.72,1.98,1.27,5.56-0.09,9.07c7.09-4.4,14.65-2.97,19.53,1.78c7.51,7.3,6.4,15.73-0.74,24.24
	l-31.25,37.24L284.822,131.04z M471.692,396.62c-81.39,0-147.37-65.98-147.37-147.37s65.98-147.37,147.37-147.37
	s147.37,65.98,147.37,147.37S553.082,396.62,471.692,396.62z M609.012,171.36l-11.03-13.72l21.97-32.13l-0.13-0.16l-35.99,14.81
	l-11.14-13.64l38.1-49l9.4,11.6l-23.86,31.21l36.46-15.65l10.08,12.45l-22.89,32.4l35.48-16.84l9.4,11.6L609.012,171.36z
	 M471.692,387.14c76.15,0,137.89-61.74,137.89-137.89h-137.89V387.14z M472.852,74.61l-0.08-0.22l-0.09,0.22H472.852z
	 M333.802,249.25h137.89V111.36C395.542,111.36,333.802,173.1,333.802,249.25z M352.242,129.2c2.46-2.93,2.11-7.51-1.49-10.53
	c-3.17-2.66-7.88-1.93-10,0.59l-18.7,22.29l11.64,9.76L352.242,129.2z M330.652,104.62c-3-2.51-7.66-2.62-9.72-0.16l-17.8,21.21
	l11.01,9.24l17.6-20.97C333.952,111.3,333.942,107.38,330.652,104.62z M472.772,74.39l-0.09,0.22h0.17L472.772,74.39z
	 M472.772,74.39l-0.09,0.22h0.17L472.772,74.39z"/>
<path fill="#FFFFFF" d="M471.692,111.36v137.89h-137.89C333.802,173.1,395.542,111.36,471.692,111.36z"/>
<path fill="#FFFFFF" d="M609.582,249.25c0,76.15-61.74,137.89-137.89,137.89V249.25H609.582z"/>
<g>
	<path fill="#FFFEF6" d="M471.692,111.36v137.89h-137.89C333.802,173.1,395.542,111.36,471.692,111.36z"/>
	<path fill="#FFFEF6" d="M609.582,249.25c0,76.15-61.74,137.89-137.89,137.89V249.25H609.582z"/>
</g>
<g>
	<g>
		<path fill="#FFFFFF" d="M331.742,113.94l-17.6,20.97l-11.01-9.24l17.8-21.21c2.06-2.46,6.72-2.35,9.72,0.16
			C333.942,107.38,333.952,111.3,331.742,113.94z"/>
		<path fill="#FFFFFF" d="M352.242,129.2l-18.55,22.11l-11.64-9.76l18.7-22.29c2.12-2.52,6.83-3.25,10-0.59
			C354.352,121.69,354.702,126.27,352.242,129.2z"/>
	</g>
	<g>
		<polygon fill="#FFFFFF" points="472.852,74.61 472.682,74.61 472.772,74.39 		"/>
	</g>
</g>
<path fill="#FFFEF6" d="M331.742,113.94l-17.6,20.97l-11.01-9.24l17.8-21.21c2.06-2.46,6.72-2.35,9.72,0.16
	C333.942,107.38,333.952,111.3,331.742,113.94z"/>
<path fill="#FFFEF6" d="M352.242,129.2l-18.55,22.11l-11.64-9.76l18.7-22.29c2.12-2.52,6.83-3.25,10-0.59
	C354.352,121.69,354.702,126.27,352.242,129.2z"/>
</svg>
