<?xml version="1.0" encoding="utf-8"?>
<!-- Generator: Adobe Illustrator 16.0.0, SVG Export Plug-In . SVG Version: 6.00 Build 0)  -->
<!DOCTYPE svg PUBLIC "-//W3C//DTD SVG 1.1//EN" "http://www.w3.org/Graphics/SVG/1.1/DTD/svg11.dtd">
<svg version="1.1" id="Layer_1" xmlns="http://www.w3.org/2000/svg" xmlns:xlink="http://www.w3.org/1999/xlink" x="0px" y="0px"
	 width="498.5px" height="498.5px" viewBox="222.442 0 498.5 498.5" enable-background="new 222.442 0 498.5 498.5"
	 xml:space="preserve">
<g>
	<path d="M330.652,104.62c-3-2.51-7.66-2.62-9.721-0.16l-17.8,21.21l11.01,9.24l17.601-20.97
		C333.952,111.3,333.942,107.38,330.652,104.62z M350.752,118.67c-3.17-2.66-7.88-1.93-10,0.59l-18.7,22.29l11.641,9.76l18.55-22.11
		C354.702,126.27,354.352,121.69,350.752,118.67z M472.772,74.39l-0.091,0.22h0.17L472.772,74.39z M350.752,118.67
		c-3.17-2.66-7.88-1.93-10,0.59l-18.7,22.29l11.641,9.76l18.55-22.11C354.702,126.27,354.352,121.69,350.752,118.67z
		 M330.652,104.62c-3-2.51-7.66-2.62-9.721-0.16l-17.8,21.21l11.01,9.24l17.601-20.97C333.952,111.3,333.942,107.38,330.652,104.62z
		 M472.772,74.39l-0.091,0.22h0.17L472.772,74.39z M471.692,18.54c-127.421,0-230.71,103.29-230.71,230.71
		s103.29,230.71,230.71,230.71c127.42,0,230.71-103.29,230.71-230.71S599.112,18.54,471.692,18.54z M437.972,31.14h18.271
		l16.529,43.25l16.53-43.25h18.26v60.72h-12.149v-42.4l-16,42.4h-13.28l-16-42.4v42.4h-12.16V31.14z M284.822,131.04l29.63-35.32
		c6.14-7.31,14.71-13.14,22.86-6.31c2.52,2.12,3.579,2.81,6.64,8.38c0.72,1.98,1.27,5.56-0.09,9.07
		c7.09-4.4,14.649-2.97,19.529,1.78c7.511,7.3,6.4,15.73-0.739,24.24l-31.25,37.24L284.822,131.04z M471.692,396.62
		c-81.391,0-147.37-65.979-147.37-147.37c0-81.39,65.979-147.37,147.37-147.37c81.39,0,147.37,65.98,147.37,147.37
		C619.062,330.641,553.082,396.62,471.692,396.62z M609.012,171.36l-11.029-13.72l21.97-32.13l-0.13-0.16l-35.99,14.81l-11.14-13.64
		l38.1-49l9.4,11.6l-23.86,31.21l36.46-15.65l10.08,12.45l-22.89,32.4l35.479-16.84l9.4,11.6L609.012,171.36z M471.692,387.141
		c76.149,0,137.89-61.74,137.89-137.891h-137.89V387.141L471.692,387.141z M472.852,74.61l-0.079-0.22l-0.091,0.22H472.852z
		 M333.802,249.25h137.891V111.36C395.542,111.36,333.802,173.1,333.802,249.25z M352.242,129.2c2.46-2.93,2.109-7.51-1.49-10.53
		c-3.17-2.66-7.88-1.93-10,0.59l-18.7,22.29l11.641,9.76L352.242,129.2z M330.652,104.62c-3-2.51-7.66-2.62-9.721-0.16l-17.8,21.21
		l11.01,9.24l17.601-20.97C333.952,111.3,333.942,107.38,330.652,104.62z M472.772,74.39l-0.091,0.22h0.17L472.772,74.39z
		 M472.772,74.39l-0.091,0.22h0.17L472.772,74.39z"/>
	<path d="M647.942,73c-47.08-47.07-109.67-73-176.25-73c-137.44,0-249.25,111.81-249.25,249.25c0,66.58,25.93,129.17,73,176.25
		c47.081,47.07,109.67,73,176.25,73s129.17-25.93,176.25-73c47.069-47.08,73-109.67,73-176.25S695.012,120.08,647.942,73z
		 M471.692,489.88c-64.271,0-124.7-25.03-170.15-70.479c-45.45-45.45-70.48-105.881-70.48-170.15c0-64.27,25.03-124.7,70.48-170.15
		c45.45-45.45,105.88-70.48,170.15-70.48c64.27,0,124.699,25.03,170.149,70.48c45.45,45.45,70.48,105.88,70.48,170.15
		C712.322,381.93,604.372,489.88,471.692,489.88z"/>
	<path d="M330.652,104.62c-3-2.51-7.66-2.62-9.721-0.16l-17.8,21.21l11.01,9.24l17.601-20.97
		C333.952,111.3,333.942,107.38,330.652,104.62z M350.752,118.67c-3.17-2.66-7.88-1.93-10,0.59l-18.7,22.29l11.641,9.76l18.55-22.11
		C354.702,126.27,354.352,121.69,350.752,118.67z M472.772,74.39l-0.091,0.22h0.17L472.772,74.39z M350.752,118.67
		c-3.17-2.66-7.88-1.93-10,0.59l-18.7,22.29l11.641,9.76l18.55-22.11C354.702,126.27,354.352,121.69,350.752,118.67z
		 M330.652,104.62c-3-2.51-7.66-2.62-9.721-0.16l-17.8,21.21l11.01,9.24l17.601-20.97C333.952,111.3,333.942,107.38,330.652,104.62z
		 M472.772,74.39l-0.091,0.22h0.17L472.772,74.39z M471.692,18.54c-127.421,0-230.71,103.29-230.71,230.71
		s103.29,230.71,230.71,230.71c127.42,0,230.71-103.29,230.71-230.71S599.112,18.54,471.692,18.54z M437.972,31.14h18.271
		l16.529,43.25l16.53-43.25h18.26v60.72h-12.149v-42.4l-16,42.4h-13.28l-16-42.4v42.4h-12.16V31.14z M284.822,131.04l29.63-35.32
		c6.14-7.31,14.71-13.14,22.86-6.31c2.52,2.12,3.579,2.81,6.64,8.38c0.72,1.98,1.27,5.56-0.09,9.07
		c7.09-4.4,14.649-2.97,19.529,1.78c7.511,7.3,6.4,15.73-0.739,24.24l-31.25,37.24L284.822,131.04z M471.692,396.62
		c-81.391,0-147.37-65.979-147.37-147.37c0-81.39,65.979-147.37,147.37-147.37c81.39,0,147.37,65.98,147.37,147.37
		C619.062,330.641,553.082,396.62,471.692,396.62z M609.012,171.36l-11.029-13.72l21.97-32.13l-0.13-0.16l-35.99,14.81l-11.14-13.64
		l38.1-49l9.4,11.6l-23.86,31.21l36.46-15.65l10.08,12.45l-22.89,32.4l35.479-16.84l9.4,11.6L609.012,171.36z M471.692,387.141
		c76.149,0,137.89-61.74,137.89-137.891h-137.89V387.141L471.692,387.141z M472.852,74.61l-0.079-0.22l-0.091,0.22H472.852z
		 M333.802,249.25h137.891V111.36C395.542,111.36,333.802,173.1,333.802,249.25z M352.242,129.2c2.46-2.93,2.109-7.51-1.49-10.53
		c-3.17-2.66-7.88-1.93-10,0.59l-18.7,22.29l11.641,9.76L352.242,129.2z M330.652,104.62c-3-2.51-7.66-2.62-9.721-0.16l-17.8,21.21
		l11.01,9.24l17.601-20.97C333.952,111.3,333.942,107.38,330.652,104.62z M472.772,74.39l-0.091,0.22h0.17L472.772,74.39z
		 M472.772,74.39l-0.091,0.22h0.17L472.772,74.39z"/>
</g>
<path d="M330.652,104.62c-3-2.51-7.66-2.62-9.721-0.16l-17.8,21.21l11.01,9.24l17.601-20.97
	C333.952,111.3,333.942,107.38,330.652,104.62z M350.752,118.67c-3.17-2.66-7.88-1.93-10,0.59l-18.7,22.29l11.641,9.76l18.55-22.11
	C354.702,126.27,354.352,121.69,350.752,118.67z M472.772,74.39l-0.091,0.22h0.17L472.772,74.39z M350.752,118.67
	c-3.17-2.66-7.88-1.93-10,0.59l-18.7,22.29l11.641,9.76l18.55-22.11C354.702,126.27,354.352,121.69,350.752,118.67z M330.652,104.62
	c-3-2.51-7.66-2.62-9.721-0.16l-17.8,21.21l11.01,9.24l17.601-20.97C333.952,111.3,333.942,107.38,330.652,104.62z M472.772,74.39
	l-0.091,0.22h0.17L472.772,74.39z M471.692,18.54c-127.421,0-230.71,103.29-230.71,230.71s103.29,230.71,230.71,230.71
	c127.42,0,230.71-103.29,230.71-230.71S599.112,18.54,471.692,18.54z M437.972,31.14h18.271l16.529,43.25l16.53-43.25h18.26v60.72
	h-12.149v-42.4l-16,42.4h-13.28l-16-42.4v42.4h-12.16V31.14z M284.822,131.04l29.63-35.32c6.14-7.31,14.71-13.14,22.86-6.31
	c2.52,2.12,3.579,2.81,6.64,8.38c0.72,1.98,1.27,5.56-0.09,9.07c7.09-4.4,14.649-2.97,19.529,1.78c7.511,7.3,6.4,15.73-0.739,24.24
	l-31.25,37.24L284.822,131.04z M471.692,396.62c-81.391,0-147.37-65.979-147.37-147.37c0-81.39,65.979-147.37,147.37-147.37
	c81.39,0,147.37,65.98,147.37,147.37C619.062,330.641,553.082,396.62,471.692,396.62z M609.012,171.36l-11.029-13.72l21.97-32.13
	l-0.13-0.16l-35.99,14.81l-11.14-13.64l38.1-49l9.4,11.6l-23.86,31.21l36.46-15.65l10.08,12.45l-22.89,32.4l35.479-16.84l9.4,11.6
	L609.012,171.36z M471.692,387.141c76.149,0,137.89-61.74,137.89-137.891h-137.89V387.141L471.692,387.141z M472.852,74.61
	l-0.079-0.22l-0.091,0.22H472.852z M333.802,249.25h137.891V111.36C395.542,111.36,333.802,173.1,333.802,249.25z M352.242,129.2
	c2.46-2.93,2.109-7.51-1.49-10.53c-3.17-2.66-7.88-1.93-10,0.59l-18.7,22.29l11.641,9.76L352.242,129.2z M330.652,104.62
	c-3-2.51-7.66-2.62-9.721-0.16l-17.8,21.21l11.01,9.24l17.601-20.97C333.952,111.3,333.942,107.38,330.652,104.62z M472.772,74.39
	l-0.091,0.22h0.17L472.772,74.39z M472.772,74.39l-0.091,0.22h0.17L472.772,74.39z"/>
<path fill="#FFFFFF" d="M471.692,111.36v137.89H333.802C333.802,173.1,395.542,111.36,471.692,111.36z"/>
<path fill="#FFFFFF" d="M609.582,249.25c0,76.15-61.74,137.891-137.89,137.891V249.25H609.582z"/>
<g>
	<path d="M471.692,111.36v137.89H333.802C333.802,173.1,395.542,111.36,471.692,111.36z"/>
	<path d="M609.582,249.25c0,76.15-61.74,137.891-137.89,137.891V249.25H609.582z"/>
</g>
<g>
	<g>
		<path fill="#FFFFFF" d="M331.742,113.94l-17.601,20.97l-11.01-9.24l17.8-21.21c2.061-2.46,6.721-2.35,9.721,0.16
			C333.942,107.38,333.952,111.3,331.742,113.94z"/>
		<path fill="#FFFFFF" d="M352.242,129.2l-18.55,22.11l-11.641-9.76l18.7-22.29c2.12-2.52,6.83-3.25,10-0.59
			C354.352,121.69,354.702,126.27,352.242,129.2z"/>
	</g>
	<g>
		<polygon fill="#FFFFFF" points="472.852,74.61 472.682,74.61 472.772,74.39 		"/>
	</g>
</g>
<path d="M331.742,113.94l-17.601,20.97l-11.01-9.24l17.8-21.21c2.061-2.46,6.721-2.35,9.721,0.16
	C333.942,107.38,333.952,111.3,331.742,113.94z"/>
<path d="M352.242,129.2l-18.55,22.11l-11.641-9.76l18.7-22.29c2.12-2.52,6.83-3.25,10-0.59
	C354.352,121.69,354.702,126.27,352.242,129.2z"/>
</svg>
