<?xml version="1.0" encoding="utf-8"?>
<!-- Generator: Adobe Illustrator 16.0.0, SVG Export Plug-In . SVG Version: 6.00 Build 0)  -->
<!DOCTYPE svg PUBLIC "-//W3C//DTD SVG 1.1//EN" "http://www.w3.org/Graphics/SVG/1.1/DTD/svg11.dtd">
<svg version="1.1" id="Ebene_1" xmlns="http://www.w3.org/2000/svg" xmlns:xlink="http://www.w3.org/1999/xlink" x="0px" y="0px"
	 width="50px" height="40px" viewBox="0 0 50 40" enable-background="new 0 0 50 40" xml:space="preserve">
<path fill="#FFFFFF" d="M50,2.077C50,3.139,48.277,4,46.153,4H3.847C1.722,4,0,3.139,0,2.077V1.923C0,0.861,1.722,0,3.847,0h42.307
	C48.277,0,50,0.861,50,1.923V2.077z"/>
<path fill="#FFFFFF" d="M50,20.077C50,21.139,48.277,22,46.153,22H3.847C1.722,22,0,21.139,0,20.077v-0.154
	C0,18.861,1.722,18,3.847,18h42.307C48.277,18,50,18.861,50,19.923V20.077z"/>
<path fill="#FFFFFF" d="M50,38.077C50,39.139,48.277,40,46.153,40H3.847C1.722,40,0,39.139,0,38.077v-0.154
	C0,36.861,1.722,36,3.847,36h42.307C48.277,36,50,36.861,50,37.923V38.077z"/>
</svg>
