<?xml version="1.0" encoding="utf-8"?>
<!-- Generator: Adobe Illustrator 16.0.0, SVG Export Plug-In . SVG Version: 6.00 Build 0)  -->
<!DOCTYPE svg PUBLIC "-//W3C//DTD SVG 1.1//EN" "http://www.w3.org/Graphics/SVG/1.1/DTD/svg11.dtd">
<svg version="1.1" id="Ebene_1" xmlns="http://www.w3.org/2000/svg" xmlns:xlink="http://www.w3.org/1999/xlink" x="0px" y="0px"
	 width="500px" height="495.63px" viewBox="0 71.87 500 495.63" enable-background="new 0 71.87 500 495.63" xml:space="preserve">
<path fill="#0000A0" d="M387.251,143.609c-35.515,0-35.515,53.899,0,53.899S422.709,143.609,387.251,143.609z M54.81,200.809
	c-49.687,0-49.801,75.47,0,75.47C104.553,276.278,104.553,200.809,54.81,200.809z M455.606,284.247
	c-35.516,0-35.516,53.898,0,53.898C491.121,338.145,491.121,284.247,455.606,284.247z M381.161,475.823
	c-35.458,0-35.572,53.898,0,53.898C416.733,529.665,416.619,475.823,381.161,475.823z M241.946,92.271
	c-35.515,0-35.515,53.899,0,53.899C277.461,146.113,277.461,92.271,241.946,92.271z M99.431,472.181
	c-35.515,0-35.515,53.898,0,53.898S134.946,472.181,99.431,472.181z M188.162,390.45c-9.96,11.61-25.498,17.416-40.581,15.196
	l-21.115,57.883c15.879,12.066,21.969,33.922,14.456,52.419c61.013,34.206,136.597,35.003,198.35,2.105
	c-4.041-11.098-3.472-23.677,1.594-34.376L188.162,390.45z M160.956,317.257l58.281-159.59
	c-9.505-5.635-16.733-14.741-19.977-25.271c-42.061,8.822-80.82,31.019-109.903,62.664c24.701,19.636,28.002,56.346,7.171,80.08
	l38.247,45.987C142.857,317.257,152.078,315.891,160.956,317.257z M154.183,334.502c-35.515,0-35.515,53.899,0,53.899
	C189.755,388.344,189.584,334.502,154.183,334.502z M248.605,316.688c-1.594-25.1,10.188-47.866,33.068-59.192l-34.036-93.967
	c-3.871,0.512-7.797,0.512-11.668,0l-58.395,159.818c6.204,3.813,11.383,9.164,15.083,15.424L248.605,316.688z M322.254,369.505
	c-28.515,6.773-58.11-8.31-69.322-35.401l-54.412,21.457c0.854,6.489,0.285,13.147-1.708,19.351l154.639,94.479
	c1.708-1.537,3.529-2.902,5.464-4.155L322.254,369.505z M367.559,320.103c-2.618,17.757-13.433,33.637-28.856,42.743l34.719,95.902
	c10.415-1.821,21.343,0.114,30.449,5.521c24.872-31.133,40.353-69.323,44.224-108.993c-17.985-3.074-32.67-17.302-36.256-35.174
	H367.559L367.559,320.103z M367.559,302.346h44.223c4.155-20.774,22.652-35.857,43.825-35.857c52.646,0,61.411,76.039,10.358,88.162
	c-3.813,44.28-21.002,86.853-48.833,121.457c33.295,44.792-30.563,97.951-68.64,57.029c-67.615,36.426-150.712,35.515-217.474-2.447
	c-8.31,8.31-19.806,13.033-31.588,13.033c-66.249,0-53.386-104.212,10.928-88.048l20.546-56.175
	c-23.506-14.4-28.514-46.898-10.245-67.672l-37.792-45.475c-8.48,4.952-18.156,7.569-28.002,7.569
	c-73.136,0-73.136-110.984,0-110.984c6.317,0,12.635,1.082,18.611,3.187c32.271-36.369,76.209-61.867,124.018-71.428
	c5.35-53.102,83.608-53.102,88.902,0c23.848,4.781,46.841,13.546,67.843,25.668c27.433-29.937,77.632-10.416,77.632,30.165
	c0,69.323-110.073,50.37-86.795-14.969c-18.782-10.814-39.272-18.668-60.501-23.165c-3.301,10.586-10.586,19.75-20.148,25.328
	l34.092,94.251C331.417,246.683,362.721,269.392,367.559,302.346z M308.31,268.993c-55.436,0-55.72,84.348,0,84.348
	C363.916,353.341,363.916,268.993,308.31,268.993z"/>
</svg>
