<?xml version="1.0" encoding="utf-8"?>
<!-- Generator: Adobe Illustrator 16.0.0, SVG Export Plug-In . SVG Version: 6.00 Build 0)  -->
<!DOCTYPE svg PUBLIC "-//W3C//DTD SVG 1.1//EN" "http://www.w3.org/Graphics/SVG/1.1/DTD/svg11.dtd">
<svg version="1.1" id="Ebene_1" xmlns="http://www.w3.org/2000/svg" xmlns:xlink="http://www.w3.org/1999/xlink" x="0px" y="0px"
	 width="500px" height="500px" viewBox="712.5 -79.604 500 500" enable-background="new 712.5 -79.604 500 500"
	 xml:space="preserve">
<g>
	<path fill="#0000FF" d="M962.496,257.896c-27.576,0-50-22.425-50-50s22.425-50,50-50c4.799,0,9.537,0.675,14.088,2.013
		c6.611,1.95,10.412,8.887,8.461,15.512c-1.938,6.625-8.898,10.4-15.512,8.475c-2.262-0.663-4.625-1-7.037-1
		c-13.788,0-25,11.212-25,25c0,13.787,11.213,25,25,25c13.787,0,25-11.213,25-25c0-6.913,5.588-12.5,12.5-12.5s12.5,5.587,12.5,12.5
		C1012.496,235.471,990.07,257.896,962.496,257.896z"/>
	<path fill="#0000FF" d="M962.496,320.396c-92.8,0-172.8-43.312-199.076-107.788c-1.225-3.012-1.225-6.413,0-9.425
		c26.275-64.475,106.275-107.788,199.076-107.788c92.812,0,172.812,43.312,199.074,107.788c1.238,3.012,1.238,6.413,0,9.425
		C1135.309,277.083,1055.309,320.396,962.496,320.396z M788.633,207.896c24.3,51.763,94.787,87.5,173.863,87.5
		c79.074,0,149.574-35.737,173.85-87.5c-24.275-51.763-94.775-87.5-173.85-87.5C883.42,120.396,812.933,156.133,788.633,207.896z"/>
	<path fill="#0000FF" d="M962.496,320.396c-62.026,0-112.5-50.463-112.5-112.5c0-62.025,50.475-112.5,112.5-112.5
		c62.037,0,112.5,50.475,112.5,112.5C1074.996,269.933,1024.533,320.396,962.496,320.396z M962.496,120.396
		c-48.25,0-87.5,39.25-87.5,87.5c0,48.237,39.25,87.5,87.5,87.5c48.236,0,87.5-39.263,87.5-87.5
		C1049.996,159.646,1010.732,120.396,962.496,120.396z"/>
	<path fill="#0000FF" d="M775.008,107.896c-3.788,0-7.525-1.712-9.976-4.962c-4.162-5.5-3.087-13.337,2.426-17.5
		c55.449-41.938,124.712-65.038,195.038-65.038c70.324,0,139.588,23.1,195.049,65.025c5.5,4.163,6.588,12,2.426,17.513
		c-4.176,5.5-12,6.587-17.512,2.438c-51.139-38.675-115.062-59.975-179.963-59.975c-64.913,0-128.826,21.3-179.963,59.962
		C780.283,107.07,777.633,107.896,775.008,107.896z"/>
</g>
</svg>
