<?xml version="1.0" encoding="utf-8"?>
<!-- Generator: Adobe Illustrator 16.0.0, SVG Export Plug-In . SVG Version: 6.00 Build 0)  -->
<!DOCTYPE svg PUBLIC "-//W3C//DTD SVG 1.1//EN" "http://www.w3.org/Graphics/SVG/1.1/DTD/svg11.dtd">
<svg version="1.1" id="Ebene_1" xmlns="http://www.w3.org/2000/svg" xmlns:xlink="http://www.w3.org/1999/xlink" x="0px" y="0px"
	 width="500px" height="500px" viewBox="-150 -150 500 500" enable-background="new -150 -150 500 500" xml:space="preserve">
<path fill="#0000FF" d="M301.403,35.777c-0.009-6.114-1.808-12.316-5.786-17.43L263.7-22.489
	c-5.345-6.789-13.477-10.245-21.606-10.258c-4.839,0-9.764,1.24-14.116,3.956l-31.119,19.36c-3.273,2.088-8.884,3.52-14.303,3.484
	c-4.213,0.018-8.281-0.824-10.969-2.151L141.114-22.86c-4.917-2.366-10.398-3.335-15.907-3.345
	c-7.915,0.036-15.93,1.982-22.369,6.445l-3.556,2.495c-2.843-1.419-7.186-3.58-12.106-6.029c-5.9-2.893-12.838-4.059-19.846-4.083
	c-6.331,0.019-12.661,0.993-18.218,3.341l-20.757,8.857c-3.377,1.464-8.751,2.421-14.088,2.398
	c-5.337,0.022-10.701-0.935-14.08-2.398l-20.775-8.861c-3.79-1.616-7.841-2.308-11.855-2.312c-4.622,0.004-9.218,0.917-13.489,2.646
	c-4.266,1.739-8.225,4.308-11.378,7.832l-37.825,42.362c-4.193,4.682-6.276,10.577-6.266,16.381
	c-0.01,6.921,2.952,13.865,8.665,18.73l35.286,30.103l-16.74,17.462c-4.614,4.816-6.912,11.059-6.912,17.234
	c-0.008,6.567,2.601,13.2,7.768,18.083l3.397,3.227c3.199,3.036,7.044,4.968,11.067,5.997c-2.019,3.711-3.122,7.781-3.112,11.86
	c-0.01,6.57,2.6,13.197,7.758,18.086l-0.01-0.003l3.405,3.241c4.847,4.596,11.131,6.884,17.325,6.881
	c3.327,0.003,6.66-0.665,9.79-1.976c1.098,4.459,3.369,8.697,6.939,12.083l3.406,3.24c4.847,4.599,11.122,6.887,17.323,6.881
	c4.847,0.006,9.718-1.422,13.91-4.198c1.228,3.947,3.329,7.688,6.528,10.728l3.405,3.24c4.839,4.593,11.123,6.884,17.315,6.878
	c6.596,0.006,13.256-2.587,18.176-7.722l14.794-15.448l20.098,18.603c4.811,4.462,10.988,6.683,17.083,6.669
	c6.693,0.014,13.451-2.668,18.382-7.945l3.207-3.437c2.771-2.979,4.576-6.498,5.627-10.172l7.783,7.186
	c4.821,4.444,10.984,6.657,17.074,6.651c6.705,0.006,13.479-2.679,18.413-7.962l3.19-3.431c3.686-3.938,5.758-8.811,6.4-13.792
	c2.054,0.528,4.135,0.886,6.235,0.886c6.708,0,13.463-2.68,18.402-7.957l3.198-3.433c4.473-4.792,6.696-10.938,6.688-17
	c0-1.883-0.269-3.755-0.688-5.604c5.562-0.735,10.954-3.216,15.056-7.619l3.209-3.438c4.471-4.791,6.686-10.938,6.686-17.004
	c0.009-6.673-2.682-13.405-7.992-18.312l-6.001-5.543l54.158-59.878C299.151,49.55,301.395,42.612,301.403,35.777z M-63.884,134.622
	c-2.354-2.226-3.516-5.187-3.524-8.225c0.008-2.853,1.03-5.635,3.13-7.828l34.283-35.774c2.233-2.33,5.213-3.498,8.271-3.502
	c2.861,0.004,5.657,1.035,7.868,3.118l3.388,3.231c0,0,3.506,5.186,3.516,8.23c-0.01,2.278-0.696,4.499-2.028,6.421
	c-0.114,0.114-37.002,38.559-37.002,38.559c-1.958,1.387-4.274,2.101-6.632,2.109c-2.869-0.009-5.675-1.034-7.868-3.112
	L-63.884,134.622z M-33.497,180.137c-2.869-0.006-5.666-1.034-7.867-3.112l-3.405-3.235l-0.01-0.006
	c-2.334-2.215-3.506-5.185-3.506-8.225c0-2.852,1.03-5.635,3.122-7.827c0,0,45.697-47.569,46.083-48.028
	c2.183-2.101,4.998-3.186,7.905-3.19c2.869,0.005,5.666,1.03,7.868,3.112l3.404,3.241l0,0c2.344,2.215,3.506,5.182,3.516,8.226
	c-0.008,2.852-1.039,5.64-3.13,7.831l-45.717,47.722C-27.464,178.966-30.439,180.128-33.497,180.137z M3.963,200.368
	c-2.87-0.006-5.667-1.034-7.868-3.118l-3.415-3.234c-2.343-2.222-3.515-5.186-3.515-8.225c0-2.548,0.865-5.012,2.521-7.068
	l31.825-33.217c2.147-1.936,4.839-2.957,7.625-2.957c2.871,0.006,5.667,1.031,7.868,3.113l3.414,3.241l0,0
	c2.335,2.215,3.506,5.18,3.516,8.219c-0.01,2.855-1.047,5.644-3.13,7.833L12.22,196.87C9.996,199.194,7.021,200.356,3.963,200.368z
	 M53.377,213.518c-2.224,2.327-5.205,3.489-8.262,3.498c-2.869-0.006-5.666-1.036-7.867-3.118l-3.405-3.237
	c-2.334-2.213-3.506-5.186-3.516-8.225c0.01-2.855,1.039-5.644,3.13-7.825l19.303-20.153c2.233-2.327,5.213-3.492,8.271-3.498
	c2.861,0.006,5.667,1.031,7.868,3.118l3.414,3.237l0,0c2.334,2.213,3.498,5.18,3.506,8.219c-0.008,2.855-1.039,5.644-3.13,7.831
	L53.377,213.518z M237.411,146.412l-3.201,3.434c-2.232,2.389-5.263,3.597-8.364,3.602c-2.815-0.005-5.57-0.993-7.761-3.016
	l-53.918-49.863l-9.325,9.981l57.715,53.467c2.405,2.224,3.612,5.247,3.629,8.331c-0.017,2.811-1.012,5.548-3.04,7.728l-3.19,3.431
	c-2.231,2.391-5.263,3.592-8.364,3.604c-2.815-0.012-5.581-1.006-7.749-3.012l-53.935-49.865l-9.314,9.982l47.864,44.264
	c2.308,2.209,3.489,5.151,3.489,8.174c0,2.8-0.995,5.543-3.022,7.716l-3.199,3.431c-2.227,2.392-5.263,3.599-8.378,3.609
	c-2.822-0.011-5.576-1.003-7.756-3.011l-47.766-44.102h-0.011l-0.012-0.011l-9.294,10.001l0.008,0.012l0,0l0.179,0.167
	l23.925,22.081c2.121,2.18,3.219,4.971,3.229,7.859c-0.011,2.788-0.994,5.517-3.022,7.69l-3.201,3.437
	c-2.232,2.389-5.253,3.587-8.348,3.598c-2.816-0.011-5.57-1-7.75-3.017l-20.83-19.288c1.813-3.556,2.825-7.414,2.825-11.286
	c0.01-6.57-2.6-13.191-7.758-18.086l-3.415-3.241c-4.837-4.59-11.113-6.883-17.305-6.872c-0.481,0-0.967,0.106-1.438,0.134
	c0-0.111,0.026-0.231,0.026-0.346c0.01-6.568-7.758-18.094-7.758-18.094l-3.406-3.232c-3.621-3.432-8.037-5.574-12.633-6.435
	c0.949-2.682,1.483-5.475,1.483-8.271c0-6.568-2.6-13.196-7.758-18.085l-3.406-3.241c-4.847-4.594-11.123-6.888-17.315-6.884
	c-0.724,0-1.438,0.147-2.157,0.211c-0.195-6.307-2.736-12.61-7.68-17.307v-0.004L-4.39,72.56c-4.848-4.6-11.123-6.894-17.316-6.889
	c-6.604-0.004-13.254,2.587-18.175,7.722l-8.092,8.445l-35.848-30.575c-2.577-2.206-3.864-5.255-3.872-8.385
	c0.008-2.624,0.901-5.191,2.806-7.324l37.825-42.362c1.501-1.685,3.721-3.208,6.32-4.266c2.601-1.058,5.553-1.639,8.312-1.634
	c2.403,0,4.66,0.436,6.463,1.214L-5.2-2.633c5.854,2.467,12.651,3.478,19.48,3.5c6.837-0.022,13.626-1.034,19.48-3.5l20.757-8.857
	c3.2-1.396,8.029-2.261,12.83-2.243c5.31-0.032,10.628,1.067,13.713,2.642c1.959,0.975,3.817,1.899,5.542,2.764L65.434,6.553
	c-6.801,4.783-10.468,12.39-10.458,20.067c-0.01,5.08,1.602,10.253,4.879,14.642l-0.01-0.008l2.796,3.757
	c5.31,7.058,13.59,10.688,21.866,10.706c4.672,0,9.433-1.181,13.676-3.726l12.658-7.603c2.581-1.578,6.481-2.577,10.516-2.558
	c4.737-0.028,9.51,1.372,12.381,3.482l35.024,25.111c7.795,5.583,20.492,15.942,27.526,22.46l40.541,37.483
	c2.403,2.228,3.61,5.234,3.621,8.324C240.445,141.491,239.442,144.233,237.411,146.412z M284.124,45.829l-54.004,59.719
	l-24.52-22.667c-7.681-7.09-20.347-17.43-28.842-23.531l-35.014-25.111c-5.939-4.206-13.208-6.023-20.394-6.049
	c-6.112,0.018-12.275,1.349-17.595,4.517L91.107,40.31c-1.942,1.167-4.229,1.761-6.605,1.766c-4.248,0.014-8.5-1.968-10.871-5.195
	l-2.788-3.753l-0.008-0.008c-1.483-2-2.175-4.244-2.183-6.514c0.018-3.433,1.602-6.765,4.668-8.93l37.432-26.301
	c3.235-2.343,8.996-3.987,14.463-3.945c3.8-0.018,7.429,0.746,9.915,1.972l30.474,14.762c5.196,2.494,11.06,3.515,16.957,3.528
	c7.582-0.036,15.242-1.685,21.557-5.561l31.127-19.366c1.988-1.24,4.374-1.881,6.858-1.881c4.201-0.01,8.411,1.894,10.797,5.002
	l31.915,40.838c1.841,2.338,2.908,5.639,2.908,9.058C287.726,39.609,286.379,43.372,284.124,45.829z"/>
</svg>
