<?xml version="1.0" encoding="utf-8"?>
<!-- Generator: Adobe Illustrator 16.0.0, SVG Export Plug-In . SVG Version: 6.00 Build 0)  -->
<!DOCTYPE svg PUBLIC "-//W3C//DTD SVG 1.1//EN" "http://www.w3.org/Graphics/SVG/1.1/DTD/svg11.dtd">
<svg version="1.1" id="Ebene_1" xmlns="http://www.w3.org/2000/svg" xmlns:xlink="http://www.w3.org/1999/xlink" x="0px" y="0px"
	 width="253.801px" height="182.23px" viewBox="0 0 253.801 182.23" enable-background="new 0 0 253.801 182.23"
	 xml:space="preserve">
<path d="M198,86.472c-0.072,0,55.225-24.12,55.295-24.12c0,0-44.207,36.576-44.207,36.648C205.992,94.968,202.32,90.72,198,86.472
	L198,86.472z"/>
<path d="M176.615,70.56c0,0.216,50.977-40.248,51.049-40.319L192.24,81.288C187.631,77.472,182.447,73.8,176.615,70.56
	L176.615,70.56z"/>
<path d="M154.225,61.56l-0.289-0.144c0.072,0,44.713-49.248,44.713-49.393c0,0.072-26.496,56.232-26.496,56.232
	C166.752,65.592,160.775,63.288,154.225,61.56L154.225,61.56z"/>
<path d="M129.744,57.96c0,0,29.736-55.08,29.736-55.152c0,0-9.217,57.816-9.217,57.744C143.928,59.112,137.088,58.176,129.744,57.96
	L129.744,57.96z"/>
<path d="M120.312,0l3.672,57.888c-0.504,0-1.008,0-1.512,0.072c-5.904,0.144-11.664,0.72-17.208,1.728
	C105.264,59.544,120.312,0,120.312,0L120.312,0z"/>
<path d="M80.496,67.032V10.224l20.304,50.4C93.672,62.136,86.904,64.368,80.496,67.032L80.496,67.032z"/>
<path d="M59.256,78.408L46.008,29.664c0,0,30.528,38.952,30.6,39.023C70.272,71.568,64.512,74.88,59.256,78.408L59.256,78.408z"/>
<path d="M44.064,91.008c-0.216,0.216-0.432,0.432-0.648,0.648c-0.792,0.792-1.584,1.655-2.376,2.52
	c0-0.072-16.056-43.848-16.056-43.848c0.072,0,30.24,30.815,30.384,30.888C51.12,84.384,47.376,87.624,44.064,91.008L44.064,91.008z
	"/>
<path d="M43.704,114.12c0.072,0.216,0.144,0.432,0.288,0.646l0.144,0.36c-7.704,13.824-16.344,27.432-28.368,38.52h53.424v9.864
	c0,0-63.576,0-63.648,0c0,0-5.544-12.888-5.544-12.96c18.216-12.024,29.592-31.752,36.72-51.48L43.704,114.12L43.704,114.12z"/>
<path d="M49.968,135.792c-2.088-1.296-2.592-2.664-3.168-4.394c-0.936-3.6,1.944-8.854,7.344-8.278c2.808,0.432,5.4,2.734,5.4,5.544
	c-1.152-2.448-7.128-4.682-7.704-2.16c-0.144,0.646,0.504,1.08,0.936,0.936c1.44-0.432,5.4,0,6.336,1.801
	c0.72,1.225,0.432,3.743-0.72,5.327C56.376,137.16,52.416,137.304,49.968,135.792L49.968,135.792z"/>
<polygon points="79.92,105.336 79.92,163.943 94.32,162.647 94.32,104.04 "/>
<path d="M158.688,112.104c-6.047-5.184-14.256-8.062-22.752-8.062c-16.919,0-30.958,13.392-30.958,30.312
	c0,16.85,14.04,30.312,30.958,30.312c8.785,0,18.648-2.521,24.48-5.904v-30.024h-25.271l-4.104,12.24h14.978v8.424
	c-1.656,1.656-6.047,2.088-8.279,2.088c-10.008,0-18.36-6.336-18.36-17.136c0-10.008,7.272-17.136,17.28-17.136
	c4.967,0,9.863,1.944,13.607,5.328L158.688,112.104L158.688,112.104z"/>
<polygon points="206.207,163.296 209.736,151.056 187.057,151.056 187.057,139.896 202.031,139.896 202.031,127.656 
	187.057,127.656 187.057,117.647 208.008,117.647 205.488,105.336 172.729,105.336 172.729,163.296 "/>
<polygon points="248.688,163.296 252.504,150.12 233.496,150.12 233.496,104.04 219.168,105.336 219.168,163.296 "/>
<path d="M247.824,95.256c0,0.792-0.432,1.152-1.225,1.152h-2.375v-2.306h2.375C247.393,94.104,247.824,94.464,247.824,95.256
	L247.824,95.256z M249.695,101.304l-1.728-3.456c1.15-0.432,1.728-1.296,1.728-2.664c0-1.872-1.367-2.808-3.096-2.808h-4.177v8.928
	h1.802v-3.24h1.799l1.584,3.24H249.695L249.695,101.304z M245.809,103.392c-3.672,0-6.553-2.88-6.553-6.552
	c0-3.601,2.881-6.552,6.553-6.552c3.601,0,6.479,2.952,6.479,6.552C252.287,100.512,249.408,103.392,245.809,103.392
	L245.809,103.392z M245.809,104.903c4.392,0,7.992-3.6,7.992-8.062c0-4.392-3.602-8.064-7.992-8.064
	c-4.465,0-8.063,3.673-8.063,8.064C237.744,101.304,241.344,104.903,245.809,104.903L245.809,104.903z"/>
<polygon points="83.736,181.943 86.256,181.943 86.256,172.656 89.712,172.656 89.712,170.496 80.352,170.496 80.352,172.656 
	83.736,172.656 "/>
<polygon points="97.128,181.943 105.768,181.943 105.768,179.855 99.576,179.855 99.576,177.048 105.12,177.048 105.12,175.104 
	99.576,175.104 99.576,172.656 105.624,172.656 105.624,170.496 97.128,170.496 "/>
<path d="M123.552,174.384c-0.288-2.664-2.376-4.104-4.896-4.104c-3.528,0-5.616,2.593-5.616,5.977c0,3.312,2.088,5.976,5.616,5.976
	c2.808,0,4.752-1.872,5.04-4.68h-2.448c-0.216,1.512-1.08,2.521-2.592,2.521c-2.232,0-3.096-1.871-3.096-3.815
	c0-2.016,0.864-3.888,3.096-3.888c1.224,0,2.304,0.862,2.52,2.016L123.552,174.384L123.552,174.384z"/>
<polygon points="131.615,181.943 134.137,181.943 134.137,176.976 138.744,176.976 138.744,181.943 141.264,181.943 
	141.264,170.496 138.744,170.496 138.744,174.888 134.137,174.888 134.137,170.496 131.615,170.496 "/>
<polygon points="150.984,181.943 153.359,181.943 153.359,174.312 153.359,174.312 158.111,181.943 160.631,181.943 
	160.631,170.496 158.328,170.496 158.328,178.2 158.256,178.2 153.504,170.496 150.984,170.496 "/>
<path d="M168.119,176.256c0,3.312,2.088,5.976,5.617,5.976c3.527,0,5.615-2.664,5.615-5.976c0-3.384-2.088-5.977-5.615-5.977
	C170.207,170.28,168.119,172.872,168.119,176.256L168.119,176.256z M170.641,176.256c0-2.016,0.863-3.888,3.096-3.888
	c2.234,0,3.097,1.872,3.097,3.888c0,1.944-0.862,3.814-3.097,3.814C171.504,180.071,170.641,178.2,170.641,176.256L170.641,176.256z
	"/>
<polygon points="187.127,181.943 195.191,181.943 195.191,179.855 189.648,179.855 189.648,170.496 187.127,170.496 "/>
<path d="M201.24,176.256c0,3.312,2.088,5.976,5.615,5.976c3.526,0,5.617-2.664,5.617-5.976c0-3.384-2.091-5.977-5.617-5.977
	C203.328,170.28,201.24,172.872,201.24,176.256L201.24,176.256z M203.76,176.256c0-2.016,0.863-3.888,3.096-3.888
	c2.233,0,3.097,1.872,3.097,3.888c0,1.944-0.863,3.814-3.097,3.814C204.623,180.071,203.76,178.2,203.76,176.256L203.76,176.256z"/>
<path d="M228.312,181.943h1.584v-6.19h-4.824v1.872h2.52c-0.145,1.584-1.08,2.446-2.664,2.446c-2.305,0-3.096-1.87-3.096-3.814
	c0-2.016,0.791-3.888,3.096-3.888c1.152,0,2.088,0.646,2.377,1.872h2.447c-0.289-2.521-2.52-3.961-4.824-3.961
	c-3.527,0-5.615,2.593-5.615,5.977c0,3.312,2.088,5.976,5.615,5.976c1.08,0,2.232-0.432,3.096-1.584L228.312,181.943
	L228.312,181.943z"/>
<polygon points="239.977,181.943 242.496,181.943 242.496,177.552 246.744,170.496 243.936,170.496 241.271,175.032 
	238.607,170.496 235.801,170.496 239.977,177.479 "/>
</svg>
