<?xml version="1.0" encoding="utf-8"?>
<!-- Generator: Adobe Illustrator 16.0.0, SVG Export Plug-In . SVG Version: 6.00 Build 0)  -->
<!DOCTYPE svg PUBLIC "-//W3C//DTD SVG 1.1//EN" "http://www.w3.org/Graphics/SVG/1.1/DTD/svg11.dtd">
<svg version="1.1" xmlns="http://www.w3.org/2000/svg" xmlns:xlink="http://www.w3.org/1999/xlink" x="0px" y="0px"
	 width="283.46px" height="55.353px" viewBox="0 0 283.46 55.353" enable-background="new 0 0 283.46 55.353" xml:space="preserve">
<g id="white">
	<g id="U3zNLv.tif_1_">
		<g>
			<path fill="#FFFFFF" d="M17.336,30.796c4.284,0,8.687-1.863,10.437-2.863c13.289-7.605,26.503-15.34,39.773-23.054
				c-1.814-4.472-5.09-4.849-8.492-4.854c-14.75-0.023-29.5-0.056-44.248,0.046c-1.995,0.014-4.142,0.433-5.94,1.265
				c-3.049,1.41-4.57,4.426-3.291,7.021C9.277,15.859,13.322,23.193,17.336,30.796z"/>
			<path fill-rule="evenodd" clip-rule="evenodd" fill="#FFFFFF" d="M34.005,55.353c-4.524,0-9.374-11.477-13.453-19.145
				c13.474-7.617,24.644-18.992,41.901-19.588C61.63,18.458,39.622,55.353,34.005,55.353z"/>
			<path fill-rule="evenodd" clip-rule="evenodd" fill="#FFFFFF" d="M5.577,8.356c-1.28-2.596,0.241-5.611,3.291-7.021
				c1.798-0.832,3.945-1.251,5.94-1.265c14.748-0.102,29.498-0.069,44.248-0.046c3.401,0.006,6.677,0.383,8.492,4.854"/>
		</g>
	</g>
	<g>
		<path fill="#FFFFFF" d="M83.713,16.521l6.109,15.821l6.161-15.821h8.354L92.955,41.689h-6.37L75.358,16.521H83.713z"/>
		<path fill="#FFFFFF" d="M130.082,16.521v25.168h-7.989v-3.551c-1.201,2.298-4.438,4.178-7.676,4.178
			c-7.258,0-12.271-5.691-12.271-13.211c0-7.519,5.013-13.21,12.271-13.21c3.237,0,6.475,1.932,7.676,4.229v-3.604H130.082z
			 M122.093,29.105c0-3.446-2.402-6.422-6.005-6.422s-6.005,2.976-6.005,6.422c0,3.498,2.402,6.423,6.005,6.423
			S122.093,32.604,122.093,29.105z"/>
		<path fill="#FFFFFF" d="M133.479,16.521h7.989v3.655c1.411-2.715,4.334-4.281,8.25-4.281c3.237,0,5.691,1.097,7.049,2.871
			c1.566,1.933,1.984,4.387,1.984,7.989v14.934h-7.989V28.792c0-3.603-1.097-6.108-4.438-6.108c-3.237,0-4.856,2.506-4.856,6.37
			v12.636h-7.989V16.521z"/>
		<path fill="#FFFFFF" d="M179.691,26.391c-0.313-2.245-1.724-3.76-4.961-3.76c-3.812,0-5.587,3.028-5.587,6.475
			c0,3.498,1.724,6.475,5.9,6.475c2.768,0,4.021-1.201,4.699-3.342h7.989c-0.783,5.691-5.064,10.13-13.054,10.13
			c-8.824,0-13.524-6.266-13.524-13.263c0-6.944,4.7-13.263,13.524-13.263c8.511,0,12.479,5.117,13.002,10.548H179.691z"/>
		<path fill="#FFFFFF" d="M189.562,29.105c0-7.205,5.273-13.263,13.941-13.263c8.772,0,13.994,6.058,13.994,13.263
			c0,7.206-5.222,13.263-13.994,13.263C194.836,42.368,189.562,36.312,189.562,29.105z M209.562,29.105
			c0-3.498-2.402-6.422-6.058-6.422c-3.603,0-5.952,2.924-5.952,6.422c0,3.551,2.35,6.423,5.952,6.423
			C207.159,35.528,209.562,32.656,209.562,29.105z"/>
		<path fill="#FFFFFF" d="M238.282,23.779c-1.097-0.261-1.724-0.365-2.82-0.365c-4.386,0-7.258,2.298-7.258,8.459v9.816h-7.989
			V16.521h7.989v4.073c1.149-2.35,4.178-4.49,7.676-4.49c0.992,0,1.671,0.104,2.402,0.417V23.779z"/>
		<path fill="#FFFFFF" d="M247.525,31.037c0.157,3.029,1.41,5.588,5.587,5.588c2.768,0,4.125-1.254,4.647-2.872h7.832
			c-0.73,4.751-5.221,8.615-12.427,8.615c-8.824,0-13.576-5.482-13.576-13.263c0-7.362,4.647-13.263,13.367-13.263
			c7.885,0,12.949,5.326,12.949,11.487c0,1.044,0,2.193-0.261,3.707H247.525z M247.525,26.442h10.548
			c0-3.237-2.141-5.273-5.17-5.273C249.771,21.169,247.525,23.049,247.525,26.442z"/>
	</g>
</g>
<g id="blue">
</g>
</svg>
