<?xml version="1.0" encoding="utf-8"?>
<!-- Generator: Adobe Illustrator 16.0.0, SVG Export Plug-In . SVG Version: 6.00 Build 0)  -->
<!DOCTYPE svg PUBLIC "-//W3C//DTD SVG 1.1//EN" "http://www.w3.org/Graphics/SVG/1.1/DTD/svg11.dtd">
<svg version="1.1" id="Ebene_1" xmlns="http://www.w3.org/2000/svg" xmlns:xlink="http://www.w3.org/1999/xlink" x="0px" y="0px"
	 width="482.976px" height="115.042px" viewBox="0 0 482.976 115.042" enable-background="new 0 0 482.976 115.042"
	 xml:space="preserve">
<g>
	<g>
		<path fill-rule="evenodd" clip-rule="evenodd" fill="#010202" d="M413.674,26.177h-21.327l-1.939,10.663h7.756l-0.538,2.908
			c-2.37,12.495-12.064,29.299-19.282,29.299c-3.446,0-4.523-2.693-3.231-9.265l6.463-33.605h-21.22l-1.939,10.663h7.648L361,63.124
			c-1.938,10.448,1.186,17.771,11.526,17.771c10.233,0,17.665-8.293,22.513-17.879l0.216,0.108c-2.908,8.4-4.202,13.356-4.74,16.587
			h13.143c1.076-6.463,3.231-18.204,4.632-25.528L413.674,26.177z M453.854,44.272c0,11.203-5.71,25.637-17.989,25.637
			c-1.939,0-4.31-0.431-6.032-0.971l0.646-3.447c2.154-11.093,11.634-28.651,19.282-28.651
			C452.346,36.84,453.854,38.995,453.854,44.272z M467.75,41.687c0-11.417-4.417-16.695-12.604-16.695
			c-8.185,0-15.402,4.525-20.682,15.081l-0.215-0.108c1.939-6.893,2.478-9.586,3.231-13.787h-13.249
			c-1.076,6.786-2.908,16.372-4.632,25.636l-9.156,47.934h13.466l3.662-19.498c2.262,0.323,3.877,0.431,5.816,0.431
			C456.87,80.68,467.75,61.938,467.75,41.687z M304.341,25.099c-7.756-1.399-14.003,3.77-19.713,15.08h-0.215
			c1.938-6.032,2.801-9.909,3.555-14.002h-13.035c-1.076,6.894-3.122,17.987-4.631,25.528l-5.386,28.006h13.465l2.263-11.634
			c3.555-18.096,12.926-32.206,20.789-29.729L304.341,25.099z M248.652,36.732l-0.647,3.447
			c-2.153,11.311-11.741,28.869-19.389,28.869c-2.692,0-4.094-2.155-4.094-7.434c0-11.203,5.709-25.635,18.098-25.635
			C244.988,35.979,246.927,36.302,248.652,36.732z M263.947,26.823c-6.031-1.186-12.496-1.616-18.959-1.616
			c-23.482,0-34.36,18.742-34.36,38.993c0,11.418,4.415,16.695,12.603,16.695c10.017,0,17.234-8.4,21.436-16.049l0.322,0.108
			c-1.614,3.77-3.231,9.263-3.984,12.71c-2.37,10.234-7.757,13.465-17.881,13.465c-9.804,0-14.973-2.37-14.973-2.37l-2.908,11.849
			c4.2,1.399,9.479,2.26,15.511,2.26c20.896,0,30.268-8.831,33.068-23.588L263.947,26.823z M339.565,46.319
			c0,11.957-6.678,22.62-16.266,22.62c-6.248,0-8.618-3.662-8.618-9.479c0-10.663,6.032-22.62,16.052-22.62
			C336.98,36.84,339.565,40.179,339.565,46.319z M353.785,44.597c0-11.095-6.032-19.498-21.007-19.498
			c-17.235,0-32.207,14.111-32.207,36.515c0,11.741,6.249,19.173,20.898,19.173C338.272,80.787,353.785,66.678,353.785,44.597z
			 M174.864,46.319c0,11.957-6.678,22.62-16.265,22.62c-6.249,0-8.617-3.662-8.617-9.479c0-10.663,6.032-22.62,16.049-22.62
			C172.279,36.84,174.864,40.179,174.864,46.319z M189.083,44.597c0-11.095-6.032-19.498-21.004-19.498
			c-17.235,0-32.208,14.111-32.208,36.515c0,11.741,6.248,19.173,20.896,19.173C173.572,80.787,189.083,66.678,189.083,44.597z
			 M139.533,26.177h-12.172l2.586-14.003l-14.327,3.231l-8.833,47.07c-2.37,12.819,0.97,18.312,12.495,18.312
			c3.339,0,7.434-0.538,10.987-1.399l1.292-10.987c-1.938,0.431-3.984,0.755-6.678,0.755c-4.416,0-5.278-1.724-4.093-8.187
			l4.523-24.021h12.064L139.533,26.177z M107.11,26.177H95.476l2.586-13.681l-14.004,2.909l-2.047,10.772h-7.647L72.209,36.84h7.756
			l-4.848,25.635c-2.478,12.819,0.754,18.312,12.279,18.312c3.339,0,7.434-0.538,10.988-1.399L99.676,68.4
			c-1.938,0.431-3.984,0.755-6.678,0.755c-4.415,0-5.278-1.724-4.093-8.187l4.523-24.128h11.526L107.11,26.177z M54.221,46.319
			c0,11.957-6.681,22.62-16.267,22.62c-6.247,0-8.617-3.662-8.617-9.479c0-10.663,6.032-22.62,16.051-22.62
			C51.635,36.84,54.221,40.179,54.221,46.319z M68.44,44.597c0-11.095-6.032-19.498-21.007-19.498
			c-17.234,0-32.207,14.111-32.207,36.515c0,11.741,6.249,19.173,20.898,19.173C52.927,80.787,68.44,66.678,68.44,44.597z"/>
	</g>
</g>
</svg>
