<?xml version="1.0" encoding="utf-8"?>
<!-- Generator: Adobe Illustrator 16.0.0, SVG Export Plug-In . SVG Version: 6.00 Build 0)  -->
<!DOCTYPE svg PUBLIC "-//W3C//DTD SVG 1.1//EN" "http://www.w3.org/Graphics/SVG/1.1/DTD/svg11.dtd">
<svg version="1.1" id="Ebene_1" xmlns="http://www.w3.org/2000/svg" xmlns:xlink="http://www.w3.org/1999/xlink" x="0px" y="0px"
	 width="192.756px" height="192.756px" viewBox="0 0 192.756 192.756" enable-background="new 0 0 192.756 192.756"
	 xml:space="preserve">
<g>
	<path fill-rule="evenodd" clip-rule="evenodd" d="M90.298,189.921c-34.312-17.697-62.483-42.618-63.928-72.595l0,0L18.425,12.587
		l0,0C47.68,5.905,65.377,2.835,90.298,2.835V189.921L90.298,189.921z"/>
	<path fill-rule="evenodd" clip-rule="evenodd" fill="#FFFFFF" d="M90.298,65.317H66.1v41.174l0,0
		c0,11.196,9.39,24.018,24.199,24.018V65.317L90.298,65.317z"/>
	<path fill-rule="evenodd" clip-rule="evenodd" d="M90.298,189.921c34.311-17.697,62.482-42.618,63.927-72.595l0,0l7.945-104.739
		l0,0c-29.255-6.682-46.952-9.752-71.873-9.752V189.921L90.298,189.921z"/>
	<path fill-rule="evenodd" clip-rule="evenodd" fill="#FFFFFF" d="M90.298,5.725c29.616,0,56.342,6.32,68.802,9.391l0,0
		l-1.331,17.914l0,0c-31.896-7.982-50.857-9.246-67.471-9.246c-16.614,0-35.576,1.264-67.472,9.246l0,0l-1.332-17.914l0,0
		C33.956,12.045,60.682,5.725,90.298,5.725L90.298,5.725L90.298,5.725L90.298,5.725z"/>
	<polygon fill-rule="evenodd" clip-rule="evenodd" fill="#FFFFFF" points="117.386,82.008 117.323,101.894 152.366,102.001 
		153.93,81.905 117.386,82.008 117.386,82.008 	"/>
	<polygon fill-rule="evenodd" clip-rule="evenodd" fill="#FFFFFF" points="155.396,62.661 156.966,41.937 91.743,41.565 
		91.743,61.783 117.386,61.783 117.386,62.659 155.396,62.661 155.396,62.661 	"/>
	<path fill-rule="evenodd" clip-rule="evenodd" d="M63.216,82.095c-0.851,1.073-1.845,2.504-2.028,3.272
		c0.396,0.211,1.237,0.922,2.034,1.903l0,0L63.216,82.095L63.216,82.095L63.216,82.095z"/>
	<path fill-rule="evenodd" clip-rule="evenodd" fill="#FFFFFF" d="M54.359,162.169c10.525,9.529,22.961,17.457,34.495,23.554l0,0
		l0-23.632L54.359,162.169L54.359,162.169L54.359,162.169z"/>
	<path fill-rule="evenodd" clip-rule="evenodd" fill="#FFFFFF" d="M88.853,141.773v-8.408l0,0
		c-9.892-0.452-16.815-5.521-20.954-11.493l0,0l-38.238,0.042l0,0c1.105,7.021,3.74,13.656,7.461,19.867l0,0L88.853,141.773
		L88.853,141.773L88.853,141.773z"/>
	<path fill-rule="evenodd" clip-rule="evenodd" fill="#FFFFFF" d="M90.298,65.317L90.298,65.317h24.198v41.174l0,0
		c0,11.196-9.39,24.018-24.198,24.018"/>
	<path fill-rule="evenodd" clip-rule="evenodd" fill="#FFFFFF" d="M106.934,127.955c7.057-5.428,10.452-13.781,10.452-19.658l0,0
		v-3.501l34.875-0.107l-1.286,16.972l0,0c-4.334,28.532-33.95,50.744-59.232,64.107l0,0l0-52.402l0,0
		c4.238-0.193,7.93-1.234,11.093-2.831l0,0l-0.076,0.724l0,0c-0.849,2.485-0.802,3.531-0.85,4.067
		c-0.145,1.12-1.518,1.229-1.762,1.105c-0.298-0.178-0.647-0.28-1.02-0.28c-1.101,0-1.992,0.893-1.992,1.992
		c0,0.188,0.025,0.316,0.074,0.489c-0.715,0.302-1.031,0.889-1.031,1.714c0,1.101,0.711,1.992,1.812,1.992
		c0.456,0,0.751,0.053,1.087-0.205c0.365,0.413,0.899,0.675,1.495,0.675c1.1,0,1.661-0.295,1.733-2.534
		c7.359-3.896,18.556-6.876,23.513-6.609c5.605,0.302,9.68,5.924,10.112,6.284c0.434,0.361,0.795,0.361,0.723-0.216
		c-0.361-2.312-1.074-5.793-6.537-8.777c0.361-1.517,3.024-1.801,3.521-2.022c0.373-0.166,0.506-0.65,0-0.65
		c-3.657-0.482-6.267,1.156-6.772,1.807c-0.506-0.145-2.979-0.325-3.702-0.253c0.406-1.855,1.49-3.21,3.106-4.569
		c-0.234,0.197,0.434-0.577-0.072-0.577c-4.045,0.361-6.556,4.551-6.844,5.634c-0.361,0.072-4.75,0.795-5.472,1.012
		c0.659-4.258,5.489-7.151,5.923-7.44s0.578-0.723,0-0.723c-6.076,0.203-10.528,8.055-10.745,9.716
		c-0.938,0.361-2.384,0.867-3.105,1.301c-0.252-2.831-0.199-3.706,0.572-5.394l0,0L106.934,127.955L106.934,127.955L106.934,127.955
		z"/>
	<path fill-rule="evenodd" clip-rule="evenodd" d="M101.007,154.609c-0.058,1.792-0.507,2.027-1.387,2.027
		c-0.477,0-0.904-0.209-1.196-0.54c-0.269,0.206-0.505,0.164-0.87,0.164c-0.88,0-1.449-0.713-1.449-1.594
		c0-0.66,0.253-1.13,0.826-1.371c-0.039-0.139-0.061-0.24-0.061-0.392c0-0.88,0.714-1.593,1.594-1.593
		c0.298,0,0.577,0.081,0.815,0.224c0.196,0.099,1.294,0.012,1.409-0.884c0.087-0.954,2.062-8.112,6.975-8.806
		c0.52-0.115,0.347,0.289,0.115,0.52c0.394-0.393-4.218,3.28-3.854,7.376c0.578-0.347,2.275-0.933,3.026-1.221
		c0.174-1.33,4.187-7.339,9.048-7.502c0.462,0,0.347,0.347,0,0.578c-0.347,0.23-4.572,2.456-5.1,5.861
		c0.578-0.173,3.456-0.751,3.745-0.809c0.231-0.867,3.283-4.674,6.83-4.598c0.404,0-0.13,0.62,0.058,0.462
		c-1.293,1.087-3.695,2.441-4.02,3.926c0.577-0.058,2.557,0.087,2.961,0.202c0.404-0.52,2.673-2.012,5.599-1.625
		c0.404,0,0.299,0.387,0,0.521c-0.397,0.177-2.258,0.766-2.546,1.979c3.159,1.864,4.398,3.818,4.688,5.667
		c0.058,0.463-0.231,0.463-0.578,0.174s-3.695-3.522-8.181-3.764C115.489,149.38,106.894,151.492,101.007,154.609L101.007,154.609
		L101.007,154.609L101.007,154.609z"/>
	<path fill-rule="evenodd" clip-rule="evenodd" d="M99.427,166.964c-0.039,1.226-0.617,1.477-1.22,1.477
		c-0.325,0-0.618-0.143-0.817-0.369c-0.184,0.142-0.346,0.112-0.596,0.112c-0.602,0-0.991-0.487-0.991-1.09
		c0-0.451,0.173-0.772,0.564-0.938c-0.026-0.094-0.041-0.164-0.041-0.267c0-0.603,0.487-1.091,1.09-1.091
		c0.204,0,0.395,0.057,0.558,0.154c0.134,0.066,0.885,0.007,0.964-0.605c0.06-0.652,0.389-5.667,3.416-6.203
		c0.355-0.079,0.237,0.197,0.079,0.355c0.269-0.269-1.797,2.122-1.281,5.09c0.395-0.237,1.149-0.502,1.664-0.699
		c0.118-0.909,1.237-5.11,4.562-5.222c0.316,0,0.237,0.237,0,0.396c-0.237,0.157-1.638,1.635-1.998,3.964
		c0.447-0.232,1.576-0.413,2.02-0.554c0.158-0.593,2.562-3.828,4.988-3.776c0.276,0-0.089,0.424,0.039,0.316
		c-0.884,0.743-2.075,1.94-2.298,2.956c0.395-0.039,1.343-0.076,1.619,0.003c0.276-0.356,1.286-1.602,3.287-1.338
		c0.277,0,0.205,0.265,0,0.356c-0.271,0.12-1.002,0.613-1.199,1.443c2.33,1.128,3.324,2.115,3.522,3.38
		c0.039,0.316-0.158,0.316-0.396,0.118c-0.237-0.197-2.348-1.642-5.415-1.807C108.837,162.98,103.525,164.459,99.427,166.964
		L99.427,166.964L99.427,166.964L99.427,166.964z"/>
	<path fill-rule="evenodd" clip-rule="evenodd" d="M70.253,102.021c0.226-0.678,0.948-1.49,1.039-1.896s-0.045-0.723,0.226-1.129
		s1.039-1.174,1.309-1.444c0.271-0.271,1.219-0.677,1.716,0.406c0.497,1.084,1.354,3.477,3.07,4.198
		c-0.677,0.361-2.302,0.948-3.16,1.129s-1.535,0.316-1.174,2.438c0.361,2.121,0.452,3.024,0.316,3.701
		c-0.135,0.678-0.181,2.122,1.084,3.251l0,0l1.128,1.58l0,0c0.451,0.406,1.535,0.857,1.625-0.045
		c0.09-0.903,0.361-1.806-0.542-1.896c-0.316-0.045-1.174-0.768-1.083-1.58c0.09-0.812-0.136-1.489-0.497-2.167
		c-0.362-0.677-0.497-1.444-0.316-2.122c0.181-0.677,0.677-1.083,1.806-0.857c0.903,0.315,5.057,1.444,6.32,0.045
		c0.858,0.632,5.959,2.528,8.939,2.212c0.542,0.948,1.671,3.025,2.393,3.612c0.587,0.542,0.812,2.257-0.181,3.16
		c-0.587,0.451-2.122,2.031-3.386,2.393c-1.264,0.361-1.76,0.587-2.348,1.174c-0.586,0.587-0.948,0.587-1.309,1.354
		s-1.174,2.122,0.135,2.122c1.31,0,1.67-0.632,1.761-0.993c0.09-0.361,0-1.129,0.497-1.265c0.497-0.135,2.031-0.226,3.07-1.489
		c1.039-1.265,3.115-1.941,3.927-2.077s0.903-0.948,0.812-1.354c-0.09-0.406-0.135-1.444,0.361-1.986
		c0.723,0.181,3.025,0.677,4.108,2.167c0.181,0.406,0.226,0.632,0.406,0.903c-0.315,0.541-0.948,1.038-1.174,1.58
		s-0.496,1.444-1.535,2.257c-1.038,0.812-1.941,1.31-2.438,2.032c-0.496,0.722-0.812,1.489-0.722,2.482
		c0.09,0.993,0.36,0.497,0.812,0.497c0.452,0,1.49-0.497,1.535-1.174s-0.271-0.993,0.678-1.399s2.618-1.761,2.979-2.619
		c0.361-0.857,1.444-2.528,2.303-3.024c0.857-0.497,0.677-1.22,0.271-1.941c-0.406-0.723-1.806-2.663-1.535-3.928
		c0.271-1.264,1.761-2.031,2.212-3.973c0.452-1.941,0.181-2.845-0.09-3.521c0.768-0.226,1.219-0.045,2.212,0.406
		c0.994,0.451,3.251,0.361,3.521-0.271c0.271-0.633,0.181-1.896,0-2.168c0.632-0.541,1.084-1.715,0.723-2.257
		s-0.542-1.265-0.361-1.986c-0.632-0.091-1.31-0.632-0.857-1.038c0.451-0.406,1.354-1.354,0.948-2.573
		c0.135-0.768,0.18-1.716-1.129-1.671c-0.045-0.496-0.451-2.121-2.483-0.632c-0.315,0.226-0.677-0.271-0.226-0.406
		s2.799-0.902,3.16-1.716c0.361-0.812,0.226-1.219,0.09-1.534c0.182-0.361,0.361-1.084,0.182-1.354
		c-0.182-0.271-0.903-0.227-1.4,0.993c-0.496,1.219-0.361,1.219-1.67,1.444c-1.31,0.226-2.303,0-3.16,1.444
		c-0.271,0.361-0.406,0.768-1.038,1.129c-0.633,0.361-0.994,0.948-1.084,1.444c-0.09,0.497,0.361,1.4,0.271,2.032
		c-0.09,0.632-0.451,1.986,1.219,3.431c0.813,0.902,2.032,2.076,1.129,2.979c-0.902,0.903-1.715-0.045-2.393-0.496
		c-0.677-0.452-2.889-1.129-4.334-1.039c-1.445,0.091-6.185-1.083-7.313-2.031c-1.129-0.948-0.438-1.429,0.135-1.716
		c0.406-0.181,0.677-0.36,0.903-0.812c0.226-0.451,0.587-0.541,0.993-0.541c0.407,0,0.813-0.091,1.174-0.948
		c0.361-0.858,0.723-0.542,1.129-0.632c0.406-0.091,0.677-0.948-0.045-1.22c-0.723-0.271-1.129-0.541-1.084-0.812
		c0.045-0.271,0.542-0.857,1.219-0.902s0.722-0.497,0.677-0.858c-0.045-0.36,0-0.587,0.451-0.812s0.406-0.768-0.361-0.993
		c-0.767-0.226-1.896-0.497-1.896-0.857c0-0.361,0.497-0.993,0.993-1.174c0.496-0.181,0.722-0.948-0.407-0.903
		s-1.76,0.181-1.986-0.542c-0.226-0.722-0.271-1.128,0.903-1.579c0.497-0.136,0.632-0.813-0.271-0.769
		c-0.903,0.046-1.941,0.497-2.257,0.181c-0.316-0.315-0.226-0.586-0.045-0.722s0.226-0.587-0.226-0.587
		c-0.452,0-2.212,0.677-2.664,0.181c-0.452-0.497-1.174-0.768-1.761-0.406c-0.587,0.36-0.587,0.902-0.271,1.219
		c0.316,0.315-0.09,0.812-0.452,0.496c-0.361-0.315-0.226-0.541-0.226-0.677s-0.271-0.587-0.587-0.768s-0.316-0.677-0.226-0.993
		c0.09-0.316-0.271-0.632-0.813-0.316c-0.542,0.316-1.038,0.858-0.768,1.671c-0.586,0.045-2.077,0.406-2.122,0.857
		s0.181,0.948,0.09,1.129s-0.587,0.181-0.858,0.361c-0.768,0.768-2.077,1.489-2.393,1.806c-0.316,0.316-0.542,0.632-0.948,1.129
		c-0.406,0.451-0.442,0.969-0.271,1.219c0.497,0.722,0.903,0.226,1.174,0.632s0.271,0.497,0.226,0.723
		c-0.045,0.226,0.497,0.722,1.31,0.045c0.812-0.678,1.399-1.399,2.032-0.632c0.632,0.768,0.045,1.219-0.226,1.716
		c-0.542,0.541-1.806,2.212-2.393,2.708c-0.587,0.497-1.039,1.671-1.264,2.754c-0.226,1.084-0.497,1.31-0.722,1.58
		c-1.083-0.406-2.303-0.902-2.98-1.444c-0.451-0.361-1.444-0.812-2.077,0.091c-0.316,0.36-1.941,2.572-2.348,3.521
		s-1.038,0.587-1.038,2.393c0,0.632-0.497,0.903-0.768,1.896c-0.045,0.271-0.768,1.941-0.045,2.257
		c0.723,0.316,1.58-0.09,1.761-0.541C70.163,103.917,70.208,102.518,70.253,102.021L70.253,102.021L70.253,102.021L70.253,102.021z"
		/>
	<path fill-rule="evenodd" clip-rule="evenodd" fill="#FFFFFF" d="M63.21,62.428h25.644V26.872l0,0
		c-14.313,0.206-33.775,0.988-65.761,9.367l0,0l5.027,65.77l35.091-0.008l-0.003-12.178l0,0c-0.981-0.772-2.494-2.021-7.006-2.019
		c-2.669,0.002-10.237,2.524-14.641,7.919c-0.061,1.889-1.144,2.595-2.073,2.595c-0.502,0-0.953-0.221-1.261-0.569
		c-0.284,0.218-0.609,0.325-0.994,0.325c-0.928,0-1.681-0.752-1.681-1.681c0-0.695,0.496-1.344,1.099-1.599
		c-0.041-0.146-0.063-0.253-0.063-0.412c0-0.929,0.752-1.681,1.681-1.681c0.314,0,0.609,0.086,0.86,0.236
		c0.207,0.104,0.879,0.56,1.001-0.385c0.091-1.006-0.035-10.441,5.01-11.87c0.549-0.122,0.366,0.305,0.122,0.548
		c-0.244,0.244-2.474,4.098-2.176,8.96c0.61-0.366,1.931-1.357,2.723-1.662c0.244-1.036,1.991-8.889,6.162-8.971
		c0.488,0,0.366,0.366,0,0.61c-0.365,0.243-2.183,2.393-2.548,6.232c0.609-0.184,2.13-0.442,2.435-0.504
		c0.244-0.914,2.043-6.176,5.456-6.48c0.427,0,0.244,0.44,0.061,0.623c-0.183,0.183-1.991,2.692-2.35,5.145
		c0.609-0.062,2.023-0.016,2.45,0.105c0.366-0.471,3.259-3.646,5.734-4.685l0,0l0.008-10.698l0,0
		c-0.475-0.431-1.217-0.89-3.493-0.896C56.167,69,50.217,70.474,42.01,75.837c-0.082,2.519-1.525,3.46-2.763,3.46
		c-0.669,0-1.271-0.294-1.682-0.76c-0.378,0.29-0.812,0.435-1.325,0.435c-1.238,0-2.241-1.003-2.241-2.241
		c0-0.928,0.662-1.792,1.466-2.132c-0.055-0.194-0.084-0.338-0.084-0.55c0-1.237,1.003-2.241,2.241-2.241
		c0.419,0,0.812,0.115,1.147,0.315c0.275,0.139,1.413,0.626,1.575-0.634c0.122-1.341,2.181-12.564,9.088-13.539
		c0.731-0.163,0.488,0.406,0.163,0.73c-0.325,0.325-5.707,4.741-5.31,11.224c0.813-0.487,3.296-1.688,4.352-2.095
		c0.325-1.382,3.377-9.806,8.939-9.914c0.65,0,0.488,0.487,0,0.812c-0.487,0.325-3.874,2.709-4.361,7.828
		c0.812-0.243,3.323-0.83,3.729-0.911c0.325-1.22,2.483-6.068,7.034-6.475c0.569,0,0.325,0.587,0.082,0.831
		c-0.244,0.243-2.655,1.905-3.133,5.174c0.462-0.046,1.447,0.129,2.298,0.302l0,0L63.21,62.428L63.21,62.428L63.21,62.428z"/>
	<path fill-rule="evenodd" clip-rule="evenodd" d="M40.998,56.018c-0.09,2.799-1.694,3.844-3.07,3.844
		c-0.744,0-1.412-0.326-1.869-0.844c-0.419,0.323-0.902,0.483-1.472,0.483c-1.375,0-2.49-1.115-2.49-2.49
		c0-1.031,0.735-1.991,1.628-2.369c-0.061-0.216-0.093-0.376-0.093-0.61c0-1.376,1.115-2.49,2.49-2.49
		c0.466,0,0.901,0.128,1.274,0.351c0.306,0.153,1.57,0.694,1.75-0.705c0.136-1.489,2.122-14.763,9.797-15.847
		c0.812-0.18,0.541,0.452,0.18,0.813c-0.361,0.36-6.32,5.146-5.598,13.272c0.903-0.542,4.063-2.076,5.237-2.527
		c0.271-2.077,3.251-11.738,9.932-11.919c0.723,0,0.542,0.541,0,0.902c-0.542,0.361-4.604,3.612-5.146,9.301
		c0.903-0.271,3.792-0.723,4.244-0.813c0.361-1.354,3.16-7.945,8.217-8.396c0.632,0,0.361,0.451,0.09,0.722
		c-0.271,0.271-3.883,3.341-3.883,6.953c0.903-0.091,3.431-0.091,4.063,0.09c0.632-0.812,3.34-3.792,7.223-4.062
		c0.632,0,0.361,0.451,0,0.812s-2.708,2.438-3.16,4.334c1.354,0.722,5.237,3.341,5.688,6.23c0.09,0.722-0.361,0.722-0.903,0.271
		c-0.542-0.451-4.695-3.792-9.933-3.792C59.96,47.53,50.118,50.058,40.998,56.018L40.998,56.018L40.998,56.018L40.998,56.018z"/>
	<path fill-rule="evenodd" clip-rule="evenodd" d="M80.422,19.109l-0.004,2.086l-3.12,0.15l0.001-1.832l0,0
		c-0.004-1.825-1.004-2.968-2.702-2.85l0,0l-8.62,0.562l0.085,4.984l-3.105,0.146L62.617,9.893L75.559,9.03l0,0
		c2.369-0.19,4.451,0.293,4.446,3.541c-0.001,0.928-0.333,1.871-0.834,2.713C79.824,15.792,80.434,17.146,80.422,19.109
		L80.422,19.109L80.422,19.109L80.422,19.109z"/>
	<path fill-rule="evenodd" clip-rule="evenodd" d="M25.107,30.013l-0.903-12.55l12.867-2.89l0,0
		c1.625-0.361,3.927-0.136,4.018,2.754s-0.452,4.108-2.483,4.56l0,0l-10.79,2.438l0.406,4.967L25.107,30.013L25.107,30.013
		L25.107,30.013z"/>
	<path fill-rule="evenodd" clip-rule="evenodd" fill="#FFFFFF" d="M27.544,19.584l0.09,1.852l8.984-1.987l0,0
		c0.767-0.18,0.903-0.812,0.858-1.219c-0.035-0.313-0.361-0.767-1.264-0.587C35.31,17.823,27.544,19.584,27.544,19.584
		L27.544,19.584L27.544,19.584L27.544,19.584z"/>
	<path fill-rule="evenodd" clip-rule="evenodd" d="M43.03,15.973c0-1.174-0.045-2.89,3.16-3.386l0,0l10.429-1.716l0,0
		c1.264-0.226,4.108,0.632,4.108,2.979l0,0l0.136,6.05l0,0c0.045,1.264-0.045,2.935-3.432,3.432l0,0l-9.661,1.534l0,0
		c-1.715,0.316-4.515,0.045-4.605-3.205l0,0L43.03,15.973L43.03,15.973L43.03,15.973z"/>
	<path fill-rule="evenodd" clip-rule="evenodd" fill="#FFFFFF" d="M46.19,17.372C46.19,17.372,46.19,18.32,46.19,17.372
		s-0.045-1.852,1.625-2.167l0,0l7.991-1.354l0,0c0.858-0.135,1.761,0.497,1.761,1.354l0,0l0.09,3.702l0,0
		c0,0.587-0.271,1.535-1.58,1.761l0,0l-7.901,1.264l0,0c-1.083,0.181-1.806,0.227-1.896-1.174l0,0L46.19,17.372L46.19,17.372
		L46.19,17.372z"/>
	<path fill-rule="evenodd" clip-rule="evenodd" d="M87.047,13.627c-0.6,0-1.085-0.486-1.085-1.086c0-0.599,0.486-1.085,1.085-1.085
		l0,0h12.731V8.749H85.558l0,0c-0.722,0-3.16,0.158-3.138,3.838c0.022,3.679,2.596,3.747,3.138,3.747l0,0l9.978-0.002l0,0
		c0.599,0,1.085,0.486,1.085,1.085c0,0.6-0.486,0.995-1.085,0.995l0,0H82.804v2.707h14.176l0,0c0.903,0,3.273,0.136,3.273-3.77
		s-2.664-3.725-3.273-3.725l0,0L87.047,13.627L87.047,13.627L87.047,13.627z"/>
	<polygon fill-rule="evenodd" clip-rule="evenodd" points="122.081,10.284 121.313,23.105 124.293,23.512 124.654,18.004 
		135.128,19.99 134.767,25.228 137.747,25.77 138.515,12.993 135.58,12.451 135.264,17.417 124.79,15.431 125.061,10.735 
		122.081,10.284 122.081,10.284 	"/>
	<polygon fill-rule="evenodd" clip-rule="evenodd" points="140.546,26.176 141.269,13.535 155.625,16.56 155.444,19.133 
		144.112,16.74 144.022,19.088 155.264,21.48 155.083,24.054 143.842,21.661 143.706,24.234 154.902,26.627 154.677,29.2 
		140.546,26.176 140.546,26.176 	"/>
	<path fill-rule="evenodd" clip-rule="evenodd" d="M119.236,12.857l0.136-2.799l-13.228-1.038l0,0
		c-1.129-0.091-3.296-0.181-3.477,3.521c-0.181,3.702-0.271,5.373-0.271,5.373c-0.045,1.264,0.722,3.386,3.115,3.566l0,0
		l13.183,0.993l0.136-2.799l-11.017-0.812l0,0c-1.038-0.046-2.167-0.361-2.076-2.258l0,0l0.09-2.709l0,0
		c0.045-1.083,0.406-2.076,2.122-1.941l0,0L119.236,12.857L119.236,12.857L119.236,12.857z"/>
	<path fill-rule="evenodd" clip-rule="evenodd" fill="#FFFFFF" d="M75.138,13.937l-9.245,0.517l-0.04-1.98l9.364-0.492l0,0
		c0.725,0.02,1.024,0.278,1.055,0.938C76.303,13.58,75.779,13.887,75.138,13.937L75.138,13.937L75.138,13.937L75.138,13.937z"/>
	<path fill-rule="evenodd" clip-rule="evenodd" d="M69.435,73.281c0.136,0.768,0.488,1.084,1.201,1.084
		c0.596,0,1.011-0.316,1.011-0.768c0-0.244-0.135-0.406-0.479-0.569l0,0l-1.652-0.768l0,0c-0.722-0.334-1.047-0.831-1.047-1.634
		c0-1.201,0.785-1.996,1.978-1.996c1.309,0,2.059,0.75,2.113,2.122l0,0h-1.083l0,0c-0.108-0.723-0.406-1.021-1.011-1.021
		c-0.542,0-0.93,0.316-0.93,0.759c0,0.207,0.135,0.379,0.379,0.496l0,0l1.698,0.786l0,0c0.767,0.352,1.102,0.768,1.102,1.652
		c0,0.623-0.235,1.174-0.677,1.571c-0.371,0.334-0.786,0.47-1.436,0.47c-0.903,0-1.544-0.316-1.914-0.948
		c-0.208-0.334-0.28-0.633-0.316-1.237l0,0H69.435L69.435,73.281L69.435,73.281z"/>
	<polygon fill-rule="evenodd" clip-rule="evenodd" points="77.443,68.758 77.443,69.949 75.845,69.949 75.845,75.34 74.734,75.34 
		74.734,69.949 73.1,69.949 73.1,68.758 77.443,68.758 77.443,68.758 	"/>
	<path fill-rule="evenodd" clip-rule="evenodd" d="M82.562,68.758v4.062l0,0c0,1.499-0.442,2.646-2.176,2.646
		c-1.725,0-2.176-1.129-2.176-2.646l0,0v-4.062h1.111v4.036l0,0c0,1.065,0.298,1.48,1.047,1.48c0.794,0,1.083-0.397,1.083-1.48l0,0
		v-4.036H82.562L82.562,68.758L82.562,68.758z"/>
	<polygon fill-rule="evenodd" clip-rule="evenodd" points="87.491,68.758 87.491,69.949 85.893,69.949 85.893,75.34 84.782,75.34 
		84.782,69.949 83.147,69.949 83.147,68.758 87.491,68.758 87.491,68.758 	"/>
	<path fill-rule="evenodd" clip-rule="evenodd" d="M94.949,71.773h2.24v3.566h-0.768l-0.109-0.831l0,0
		c-0.424,0.66-0.939,0.958-1.616,0.958c-1.454,0-2.483-1.391-2.483-3.359c0-2.095,1.047-3.477,2.646-3.477
		c1.3,0,2.167,0.822,2.33,2.222l0,0H96.05l0,0c-0.217-0.714-0.578-1.029-1.183-1.029c-0.93,0-1.508,0.857-1.508,2.229
		c0,1.346,0.596,2.222,1.508,2.222c0.695,0,1.156-0.487,1.3-1.372l0,0h-1.219V71.773L94.949,71.773L94.949,71.773z"/>
	<polygon fill-rule="evenodd" clip-rule="evenodd" points="99.733,68.758 100.989,68.758 102.895,75.34 101.685,75.34 
		101.313,73.958 99.354,73.958 98.975,75.34 97.811,75.34 99.733,68.758 99.733,68.758 	"/>
	<path fill-rule="evenodd" clip-rule="evenodd" d="M105.89,68.758c0.768,0,1.057,0.081,1.382,0.379
		c0.361,0.343,0.56,0.867,0.56,1.517c0,0.759-0.189,1.147-0.768,1.526c0.523,0.279,0.587,0.46,0.633,1.733
		c0.035,1.065,0.062,1.229,0.234,1.427l0,0h-1.229l0,0c-0.107-0.361-0.126-0.451-0.135-1.038c-0.027-0.967,0.108-1.562-0.921-1.562
		l0,0h-1.021v2.601h-1.111v-6.582H105.89L105.89,68.758L105.89,68.758z"/>
	<polygon fill-rule="evenodd" clip-rule="evenodd" points="112.796,68.758 112.796,69.949 111.197,69.949 111.197,75.34 
		110.087,75.34 110.087,69.949 108.452,69.949 108.452,68.758 112.796,68.758 112.796,68.758 	"/>
	<polygon fill-rule="evenodd" clip-rule="evenodd" points="92.367,68.758 92.367,69.949 90.769,69.949 90.769,75.34 89.658,75.34 
		89.658,69.949 88.023,69.949 88.023,68.758 92.367,68.758 92.367,68.758 	"/>
	<polygon fill-rule="evenodd" clip-rule="evenodd" fill="#FFFFFF" points="101.016,72.83 100.339,70.266 99.661,72.83 
		101.016,72.83 101.016,72.83 	"/>
	<path fill-rule="evenodd" clip-rule="evenodd" fill="#FFFFFF" d="M104.626,71.629h1.056l0,0c0.759,0,1.003-0.208,1.003-0.849
		c0-0.642-0.234-0.831-1.003-0.831l0,0h-1.056V71.629L104.626,71.629L104.626,71.629z"/>
	<path fill-rule="evenodd" clip-rule="evenodd" d="M169.146,15.671c2.518,0,4.559,2.04,4.559,4.558c0,2.544-2.041,4.585-4.559,4.585
		c-2.53,0-4.571-2.041-4.571-4.585C164.575,17.711,166.616,15.671,169.146,15.671L169.146,15.671v-0.626l0,0
		c-2.884,0-5.211,2.326-5.211,5.184c0,2.884,2.327,5.211,5.211,5.211c2.871,0,5.185-2.327,5.185-5.211
		c0-2.857-2.313-5.184-5.185-5.184l0,0V15.671L169.146,15.671L169.146,15.671z"/>
	<path fill-rule="evenodd" clip-rule="evenodd" d="M167.923,17.848h1.659l0,0c0.722,0,1.511,0.108,1.511,1.007
		c0,1.184-1.266,1.048-2.082,1.048l0,0h-1.088v0.558h1.306l1.66,2.68h0.843l-1.755-2.68l0,0c1.034-0.027,1.837-0.449,1.837-1.592
		c0-0.49-0.218-1.007-0.653-1.252c-0.435-0.259-0.925-0.285-1.414-0.285l0,0h-2.531v5.809h0.708V17.848L167.923,17.848
		L167.923,17.848z"/>
</g>
</svg>
