<?xml version="1.0" encoding="utf-8"?>
<!-- Generator: Adobe Illustrator 16.0.0, SVG Export Plug-In . SVG Version: 6.00 Build 0)  -->
<!DOCTYPE svg PUBLIC "-//W3C//DTD SVG 1.1//EN" "http://www.w3.org/Graphics/SVG/1.1/DTD/svg11.dtd">
<svg version="1.1" id="Ebene_1" xmlns="http://www.w3.org/2000/svg" xmlns:xlink="http://www.w3.org/1999/xlink" x="0px" y="0px"
	 width="200px" height="200px" viewBox="0 0 200 200" enable-background="new 0 0 200 200" xml:space="preserve">
<g>
	<defs>
		<path id="SVGID_1_" d="M183.652,101.02c-1.324-0.395-2.631-0.294-3.922,0.3l-13.372,6.803c3.085-15.232,0.972-30.037-6.335-44.414
			c-8.504-16.561-21.507-27.964-39.014-34.21c-0.047-0.036-0.114-0.069-0.2-0.1c-0.508-0.219-1.077-0.453-1.71-0.7
			c-0.038,0.019-0.07,0.019-0.101,0c-2.111-0.641-4.223-1.176-6.335-1.601c-1.354-0.269-2.628-0.036-3.82,0.7
			c-1.127,0.791-1.83,1.858-2.111,3.201c-0.272,1.347-0.038,2.581,0.703,3.702c0.796,1.186,1.868,1.919,3.219,2.201
			c1.775,0.374,3.553,0.841,5.328,1.4l-0.1-0.1c0.469,0.183,0.87,0.35,1.206,0.5c0.122,0.034,0.223,0.067,0.302,0.1
			c15.114,5.371,26.342,15.206,33.684,29.508v-0.1c6.03,11.874,7.94,24.077,5.731,36.611l-9.651-10.204
			c-0.907-1.011-2.048-1.546-3.42-1.601c-1.389-0.045-2.596,0.388-3.621,1.3c-1.019,0.968-1.555,2.135-1.608,3.501
			c-0.045,1.379,0.392,2.579,1.309,3.601l15.886,16.905c0.202,0.18,0.367,0.346,0.504,0.5c0.657,1.204,1.63,2.004,2.915,2.401
			c1.325,0.459,2.598,0.359,3.82-0.301l21.317-10.704c1.272-0.575,2.11-1.51,2.514-2.799c0.466-1.319,0.364-2.62-0.302-3.901
			C185.891,102.321,184.953,101.486,183.652,101.02z M42.983,19.895c-0.711,1.191-0.912,2.458-0.603,3.801
			c0.362,1.343,1.133,2.376,2.312,3.101L57.362,34.5c-14.451,5.452-25.847,15.021-34.187,28.708
			c-9.67,16.112-12.485,33.283-8.446,51.515l-0.1-0.5c0.138,0.874,0.339,1.708,0.603,2.501c0.508,1.973,1.044,3.873,1.609,5.702
			c0.468,1.34,1.306,2.308,2.513,2.901c1.268,0.661,2.542,0.761,3.821,0.298c1.346-0.396,2.318-1.229,2.916-2.499
			c0.664-1.195,0.764-2.463,0.301-3.802c-0.531-1.705-1.035-3.506-1.508-5.401c-0.026-0.234-0.093-0.502-0.201-0.801
			c-0.021-0.014-0.055-0.047-0.101-0.1c0.022-0.166,0.022-0.333,0-0.5c-3.468-15.646-1.056-30.382,7.24-44.213v0.1
			c6.887-11.304,16.205-19.338,27.954-24.107l-3.62,13.503c-0.31,1.336-0.108,2.604,0.604,3.801
			c0.686,1.204,1.692,1.971,3.017,2.301c1.34,0.375,2.614,0.209,3.82-0.5c1.21-0.685,1.98-1.685,2.313-3.001l6.033-22.406
			c0.103-0.258,0.169-0.525,0.201-0.8c0.628-1.121,0.762-2.321,0.403-3.601c-0.296-1.343-1.034-2.376-2.213-3.101L49.921,18.195
			c-1.199-0.707-2.473-0.907-3.821-0.601C44.75,17.953,43.711,18.72,42.983,19.895z M67.82,142.631l-22.524,5.802
			c-0.301,0.123-0.603,0.257-0.905,0.4c-1.249,0.042-2.355,0.51-3.318,1.4c-0.971,0.941-1.475,2.074-1.508,3.401l-0.704,23.706
			c-0.026,1.422,0.443,2.623,1.408,3.602c0.962,1.034,2.135,1.567,3.519,1.601c1.378,0.026,2.551-0.439,3.52-1.401
			c1.039-0.94,1.575-2.108,1.609-3.501l0.401-14.904c11.962,9.918,26.006,15.12,42.131,15.604
			c18.803,0.496,35.193-5.505,49.168-18.005c0.097-0.049,0.162-0.116,0.2-0.2c0.369-0.3,0.737-0.666,1.106-1.099l-0.2,0.199
			c1.738-1.547,3.313-3.147,4.726-4.802c0.905-1.005,1.309-2.205,1.206-3.601c-0.11-1.351-0.714-2.484-1.81-3.401
			c-1.008-0.902-2.215-1.303-3.618-1.201c-1.357,0.113-2.495,0.679-3.421,1.701c-1.136,1.348-2.41,2.647-3.82,3.901
			c-0.027,0.05-0.097,0.083-0.201,0.1c-0.369,0.434-0.736,0.801-1.105,1.101l0.2-0.1c-11.967,10.707-26.01,15.842-42.129,15.404
			c-13.313-0.4-24.978-4.569-34.991-12.503l13.574-3.502c1.375-0.33,2.414-1.097,3.118-2.301c0.712-1.18,0.879-2.447,0.502-3.802
			c-0.331-1.299-1.101-2.299-2.312-3.001C70.45,142.524,69.177,142.324,67.82,142.631z"/>
	</defs>
	<use xlink:href="#SVGID_1_"  overflow="visible" fill-rule="evenodd" clip-rule="evenodd" fill="#0000FF"/>
	<clipPath id="SVGID_2_">
		<use xlink:href="#SVGID_1_"  overflow="visible"/>
	</clipPath>
	<g clip-path="url(#SVGID_2_)">
		<defs>
			<rect id="SVGID_3_" x="-901.007" y="-3860.832" width="2048.786" height="17011.326"/>
		</defs>
		<use xlink:href="#SVGID_3_"  overflow="visible" fill="#0000FF"/>
		<clipPath id="SVGID_4_">
			<use xlink:href="#SVGID_3_"  overflow="visible"/>
		</clipPath>
		<rect x="4.941" y="9.453" clip-path="url(#SVGID_4_)" fill="#0000FF" width="190.119" height="181.094"/>
	</g>
</g>
</svg>
