<?xml version="1.0" encoding="utf-8"?>
<!-- Generator: Adobe Illustrator 16.0.0, SVG Export Plug-In . SVG Version: 6.00 Build 0)  -->
<!DOCTYPE svg PUBLIC "-//W3C//DTD SVG 1.1//EN" "http://www.w3.org/Graphics/SVG/1.1/DTD/svg11.dtd">
<svg version="1.1" id="Ebene_1" xmlns="http://www.w3.org/2000/svg" xmlns:xlink="http://www.w3.org/1999/xlink" x="0px" y="0px"
	 width="200px" height="102.667px" viewBox="0 0 200 102.667" enable-background="new 0 0 200 102.667" xml:space="preserve">
<g>
	<path fill-rule="evenodd" clip-rule="evenodd" d="M74.37,39.667l5.95,19.425c-1.79,0.649-3.83,1.128-6.01,1.128
		c-2.24,0-4.34-0.547-6.15-1.237l6.08-19.315H74.37z"/>
	<path fill-rule="evenodd" clip-rule="evenodd" d="M129.88,41.577c0,5.95-4.49,8.09-10.12,8.09H116v-16h3.76
		C125.39,33.667,129.88,35.807,129.88,41.577z"/>
	<path fill-rule="evenodd" clip-rule="evenodd" d="M3,3.667v96h98.46l96.37-96H3z M121.72,62.667H116v18H87.12l-2.81-8.699
		c-3.01,0.99-6.41,1.595-10,1.595c-3.7,0-7.18-0.673-10.24-1.703l-2.93,8.808H43.73l1.92-5.029c-0.23,0.199-0.46,0.465-0.7,0.654
		c-4.35,3.5-9.78,5.447-16.51,5.567l-1,0.024c-7.72,0-15.3-2.124-21.7-5.773l5.92-11.757c6.41,3.79,10.44,4.642,15.88,4.531
		c2.82-0.05,4.85-0.568,6.18-1.938c0.8-0.84,1.23-1.869,1.26-2.989c0.05-3.06-4.3-4.49-9.62-6.13c-4.31-1.351-9.21-3.17-13.03-5.97
		c-4.54-3.34-6.7-7.51-6.59-13.4c0.07-4.28,1.65-7.93,4.59-10.98c4.21-4.35,11.01-6.81,19.18-6.81h0.04c7,0,15.54,1.8,21.73,4.95
		l-6.68,11.5c-6.76-3.27-10.17-3.621-14.03-3.831c-5.73-0.31-8.64,1.715-8.67,3.925c-0.05,2.7,5.41,5.138,10.59,6.788
		c7.83,2.49,17.77,6.004,19.29,15.614l14.31-37.946H82.7L99,66.876v-45.59l19.404,0.01c18.33,0,27.054,6.625,27.054,20.865
		C145.458,54.942,136.7,62.667,121.72,62.667z"/>
	<path d="M125.03,93.3c0-2.96,2.232-5.2,5.091-5.2c2.819,0,5.056,2.24,5.056,5.2c0,3.01-2.236,5.222-5.056,5.222
		C127.263,98.522,125.03,96.31,125.03,93.3z M130.121,99.566c3.398,0,6.312-2.652,6.312-6.266c0-3.59-2.913-6.235-6.312-6.235
		c-3.442,0-6.348,2.646-6.348,6.235C123.773,96.914,126.679,99.566,130.121,99.566z M128.795,93.792h1.256l1.897,3.121h1.229
		l-2.057-3.172c1.058-0.124,1.871-0.69,1.871-1.981c0-1.42-0.841-2.05-2.54-2.05h-2.745v7.203h1.089V93.792z M128.795,92.864v-2.226
		h1.493c0.746,0,1.552,0.159,1.552,1.057c0,1.112-0.82,1.169-1.734,1.169H128.795z"/>
</g>
</svg>
