<?xml version="1.0" encoding="utf-8"?>
<!-- Generator: Adobe Illustrator 23.0.1, SVG Export Plug-In . SVG Version: 6.00 Build 0)  -->
<svg version="1.1" id="Layer_1" xmlns="http://www.w3.org/2000/svg" xmlns:xlink="http://www.w3.org/1999/xlink" x="0px" y="0px"
	 viewBox="0 0 28.3 28.3" style="enable-background:new 0 0 28.3 28.3;" xml:space="preserve">
<style type="text/css">
	.st0{fill:#6273B7;}
</style>
<g>
	<path class="st0" d="M4.1,27.2V1h10.9c1.4,0,2.6,0.2,3.6,0.5c1,0.3,1.9,0.7,2.5,1.2s1.1,1.1,1.5,1.7c0.4,0.7,0.6,1.3,0.7,1.9
		c0.1,0.6,0.2,1.2,0.2,1.8c0,1.5-0.5,2.8-1.4,3.8s-2,1.7-3.2,2c0.5,0,0.9,0.1,1.5,0.4c0.5,0.3,1,0.6,1.6,1.1
		c0.5,0.5,0.9,1.1,1.3,1.9s0.5,1.6,0.5,2.6c0,0.6-0.1,1.2-0.2,1.8c-0.1,0.6-0.4,1.2-0.8,1.9c-0.4,0.7-0.9,1.3-1.5,1.8
		s-1.4,0.9-2.5,1.3s-2.3,0.5-3.6,0.5H4.1z M10.1,11.6h3.6c0.7,0,1.3-0.1,1.8-0.3c0.5-0.2,0.9-0.5,1.1-0.8c0.2-0.3,0.4-0.7,0.5-1
		c0.1-0.3,0.2-0.7,0.2-1.1c0-0.3,0-0.7-0.1-1c-0.1-0.3-0.3-0.6-0.5-1c-0.2-0.3-0.6-0.6-1.1-0.8c-0.5-0.2-1.1-0.3-1.8-0.3h-3.6V11.6z
		 M13.9,16.1h-3.8v6.4h3.8c0.7,0,1.3-0.1,1.8-0.3s0.9-0.5,1.1-0.8s0.4-0.7,0.5-1c0.1-0.3,0.2-0.7,0.2-1.1c0-0.3,0-0.5-0.1-0.8
		c-0.1-0.3-0.2-0.6-0.3-0.8c-0.2-0.3-0.4-0.6-0.6-0.8c-0.3-0.2-0.6-0.4-1-0.6C15,16.2,14.5,16.1,13.9,16.1z"/>
</g>
</svg>
