<?xml version="1.0" encoding="utf-8"?>
<!-- Generator: Adobe Illustrator 23.0.1, SVG Export Plug-In . SVG Version: 6.00 Build 0)  -->
<svg version="1.1" id="Layer_1" xmlns="http://www.w3.org/2000/svg" xmlns:xlink="http://www.w3.org/1999/xlink" x="0px" y="0px"
	 viewBox="0 0 28.3 28.3" style="enable-background:new 0 0 28.3 28.3;" xml:space="preserve">
<style type="text/css">
	.st0{fill:#6273B7;}
</style>
<g>
	<path class="st0" d="M21.3,17.8h6.4c-0.3,1.4-0.7,2.7-1.5,3.9s-1.6,2.3-2.7,3.2c-1.1,0.9-2.4,1.6-3.9,2.2c-1.5,0.5-3.2,0.8-4.9,0.8
		c-2.1,0-4.1-0.4-5.9-1.1C7,26,5.5,25,4.4,23.7c-1.2-1.3-2.1-2.7-2.7-4.4c-0.6-1.7-1-3.4-1-5.3c0-1.8,0.3-3.5,1-5.2
		c0.6-1.7,1.5-3.1,2.7-4.4c1.1-1.3,2.6-2.3,4.3-3c1.7-0.8,3.7-1.1,5.7-1.1c2,0,3.8,0.3,5.4,0.8c1.6,0.6,3,1.3,4.1,2.3
		c1.1,1,2,2.1,2.6,3.4s1.1,2.7,1.3,4.2h-6.3c-0.3-1.6-1-2.9-2.2-3.9c-1.2-1-2.7-1.5-4.5-1.5c-1.6,0-3.1,0.4-4.3,1.2
		c-1.2,0.8-2.1,1.8-2.7,3c-0.6,1.2-0.9,2.6-0.9,4.1c0,1.5,0.3,2.9,1,4.2c0.6,1.3,1.6,2.3,2.9,3c1.3,0.8,2.7,1.1,4.4,1.1
		c1.5,0,2.8-0.4,4-1.3C20.2,20.2,21,19.1,21.3,17.8z"/>
</g>
</svg>
