<?xml version="1.0" encoding="utf-8"?>
<!-- Generator: Adobe Illustrator 23.0.1, SVG Export Plug-In . SVG Version: 6.00 Build 0)  -->
<svg version="1.1" id="Layer_1" xmlns="http://www.w3.org/2000/svg" xmlns:xlink="http://www.w3.org/1999/xlink" x="0px" y="0px"
	 viewBox="0 0 28.3 28.3" style="enable-background:new 0 0 28.3 28.3;" xml:space="preserve">
<style type="text/css">
	.st0{fill:#FFFFFF;}
</style>
<g>
	<path class="st0" d="M3.4,18.5h6.1c0,1.4,0.4,2.5,1.2,3.3s1.8,1.2,3,1.2c1,0,1.8-0.3,2.5-0.9c0.7-0.6,1-1.3,1-2.2
		c0-0.3,0-0.6-0.1-0.8s-0.2-0.5-0.3-0.7c-0.1-0.2-0.3-0.4-0.5-0.6c-0.2-0.2-0.4-0.3-0.6-0.5s-0.4-0.3-0.8-0.4
		c-0.3-0.2-0.6-0.3-0.9-0.4c-0.2-0.1-0.5-0.2-1-0.4c-0.7-0.2-1.2-0.4-1.6-0.6c-0.4-0.1-0.9-0.3-1.5-0.6c-0.6-0.2-1.1-0.5-1.4-0.7
		c-0.3-0.2-0.7-0.4-1.2-0.7c-0.5-0.3-0.8-0.6-1.1-0.9c-0.3-0.3-0.6-0.6-0.9-1s-0.5-0.8-0.7-1.2c-0.2-0.4-0.3-0.9-0.4-1.4
		C4.2,8.8,4.2,8.3,4.2,7.7c0-1.5,0.4-2.9,1.3-4c0.9-1.1,2-2,3.4-2.5c1.4-0.5,2.9-0.8,4.5-0.8c1.5,0,2.9,0.2,4.1,0.7s2.2,1.1,2.9,1.8
		c0.8,0.8,1.3,1.7,1.7,2.7s0.6,2.1,0.6,3.2h-6.1c0-1.2-0.3-2.1-0.8-2.8c-0.6-0.7-1.4-1-2.4-1c-0.9,0-1.7,0.2-2.3,0.7
		c-0.6,0.5-0.9,1.1-0.9,2c0,0.8,0.3,1.5,1,2s1.6,1,2.8,1.4c0.6,0.2,1.1,0.4,1.5,0.5c0.3,0.1,0.8,0.3,1.4,0.5
		c0.6,0.2,1.1,0.5,1.4,0.6c0.3,0.2,0.8,0.4,1.3,0.7c0.5,0.3,0.9,0.6,1.2,0.9s0.6,0.6,1,1c0.3,0.4,0.6,0.8,0.8,1.2s0.3,0.9,0.5,1.4
		c0.1,0.5,0.2,1.1,0.2,1.6c0,1.8-0.4,3.3-1.3,4.6c-0.8,1.3-2,2.2-3.5,2.9c-1.5,0.6-3.2,1-5.1,1c-1.9,0-3.6-0.4-5-1.1
		S5.6,25,4.7,23.6C3.9,22.1,3.4,20.4,3.4,18.5z"/>
</g>
</svg>
